<svg width="345" height="722" viewBox="0 0 345 722" fill="none" xmlns="http://www.w3.org/2000/svg">
<path d="M266.865 473.63C265.625 477.919 262.302 479.867 259.308 482.357C253.449 487.231 246.581 490.336 240.233 494.333C232.463 499.227 223.646 501.201 214.53 503.259C212.462 501.468 212.427 501.443 213.019 500.586C214.009 499.15 215.551 498.442 217.066 497.763C224.837 494.279 230.923 488.51 236.632 482.504C241.616 477.262 242.072 469.919 243.649 462.881C238.995 464.828 235.073 467.704 230.881 470.108C223.281 474.468 215.368 477.844 206.244 475.727C204.273 475.27 202.155 474.931 201.541 472.619C200.933 470.333 202.493 468.852 204.013 467.535C207.573 464.447 211.648 462.212 216.048 460.551C220.105 459.019 224.142 457.358 227.696 454.885C230.819 452.712 233.687 450.114 234.473 446.11C233.64 445.004 232.811 445.602 232.205 446.005C222.279 452.606 210.912 456.226 200.267 461.323C187.892 467.248 174.762 467.305 161.745 463.451C148.464 459.518 135.557 454.657 124.859 445.351C123.789 444.419 122.408 442.921 120.957 443.774C119.147 444.836 120.354 446.788 120.575 448.341C120.885 450.525 122.12 452.354 123.075 454.296C125.527 459.281 123.049 466.093 118.054 468.224C114.759 469.629 113.65 465.935 111.178 465.132C110.519 467.919 111.685 470.125 113.108 472.162C118.145 479.371 124.833 484.842 131.981 489.806C132.391 490.091 132.856 490.526 133.292 490.494C142.626 489.803 148.589 497.164 156.355 500.225C160.235 501.754 163.989 503.366 168.129 504.109C170.261 504.492 173.106 504.705 172.248 508.528C162.095 507.907 152.12 507.947 142.34 505.142C136.118 503.358 129.498 502.836 123.386 500.474C111.566 495.907 99.7006 491.391 90.1372 482.606C88.4058 481.015 87.0795 479.234 86.9419 476.393C88.4701 469.277 89.9317 462.493 91.4474 455.723C93.4667 446.703 96.4445 437.925 99.8508 429.323C102.579 422.434 101.295 414.807 103.99 407.923C104.546 406.502 103.37 405.526 102.301 405.324C98.2236 404.553 96.8558 400.658 94.0419 398.557C85.6184 392.269 82.0362 382.935 77.466 374.138C75.6722 370.685 74.7561 367.024 73.7852 363.347C72.5558 358.692 74.2266 356.721 79.0563 357.123C82.5121 357.411 85.7827 359.098 89.3636 358.517C91.6498 358.147 94.2782 358.63 95.66 355.59C97.4953 351.822 100.383 351.076 104.243 352.012C105.537 352.755 105.809 353.675 105.906 354.714C106.127 357.095 104.25 359.881 106.473 361.808C110.06 364.919 113.243 368.743 118.445 369.49C120.911 369.844 123.406 370.139 125.83 370.711C127.855 371.188 130.301 371.377 130.272 374.671C127.789 378.505 127.824 382.016 130.409 385.766C130.932 386.358 131.205 386.717 131.63 387.382C132.414 388.802 132.601 390.225 134.265 391.003C135.409 391.918 136.328 392.567 137.637 393.262C142.947 396.852 148.537 398.799 154.77 400.123C156.639 401.552 157.611 403.406 159.656 404.693C162.186 407.814 160.893 411.531 162.346 414.953C163.034 420.695 165.135 425.352 169.107 429.094C170.066 429.998 171.012 430.898 171.111 432.656C166.538 436.349 163.873 431.916 160.15 430.437C159.598 430.215 159.385 430.111 158.883 429.802C157.729 428.86 157.278 427.72 155.977 426.93C155.574 426.534 155.428 426.362 155.101 425.906C153.535 423.144 153.061 419.715 148.704 420.101C143.878 421.49 139.421 419.135 134.985 420.004C132.36 420.519 128.515 419.549 127.572 422.776C126.741 425.619 130.079 427.185 131.955 428.917C136.483 433.098 141.197 436.974 147.317 438.866C150.8 439.943 153.694 442.397 156.751 444.42C168.274 452.041 180.327 453.787 193.131 447.658C202.733 443.062 212.845 439.694 222.677 435.646C228.006 433.453 232.578 430.441 236.495 426.116C239.832 422.43 243.894 419.439 249.338 418.311C251.274 418.546 251.832 419.667 252.195 421.04C254.757 430.712 257.519 440.323 261.053 450.078C263.17 458.004 265.426 465.52 266.865 473.63Z" fill="#D9D2C2"/>
<path d="M172.451 508.871C172.04 507.012 171.242 506.151 169.356 505.972C158.922 504.98 150.547 499.21 141.974 493.955C139.935 492.705 138.091 491.409 135.544 492.627C134.285 493.229 132.919 493.063 131.777 492.14C124.423 486.199 116.623 480.718 111.265 472.688C110.454 471.471 109.767 470.064 109.448 468.649C108.912 466.277 107.803 462.985 110.009 461.727C112.536 460.285 113.001 464.085 114.283 465.477C116.623 468.017 116.872 466.949 119.168 464.982C124.591 460.338 122.837 456.798 119.899 451.893C118.214 449.081 116.067 444.229 119.025 441.747C122.442 438.879 125.287 443.494 127.744 445.476C133.897 450.439 140.585 454.08 148.052 456.642C152.052 458.015 155.857 459.921 159.946 461.231C173.654 465.622 187.324 465.845 200.242 459.564C211.078 454.294 222.847 450.86 232.703 443.595C233.719 442.846 234.799 441.614 236.168 442.98C237.253 444.061 237.116 445.427 236.58 446.712C234.222 452.365 230.052 456.112 224.545 458.731C218.164 461.765 211.12 463.518 205.6 468.258C204.26 469.408 202.063 470.269 202.595 472.399C203.1 474.428 205.321 473.706 206.867 474.078C215.636 476.19 223.108 472.843 230.216 468.41C234.286 465.871 238.61 463.727 242.224 460.411C245.094 457.777 246.154 461.233 245.772 462.58C243.399 470.952 243.332 480.352 235.092 486.24C231.517 488.794 229.15 492.838 225.097 495.019C222.188 496.585 219.608 498.707 216.444 499.896C215.312 500.322 213.232 500.376 213.906 502.843C211.025 505.896 206.868 504.834 203.285 505.623C193.327 507.815 183.189 509.441 172.451 508.871Z" fill="#EBE6D6"/>
<path d="M287.669 210.814C288.188 211.258 288.484 211.42 288.948 211.776C291.133 220.958 289.948 230.067 290.08 239.559C290.018 239.996 289.81 240.402 289.771 240.626C287.774 248.082 286.692 255.562 283.364 262.786C282.952 263.381 282.769 263.658 282.401 264.104C281.179 264.356 280.011 264.282 280.202 266.217C279.973 267.114 279.729 267.672 279.389 268.498C279.061 269.267 278.825 269.768 278.855 270.61C278.919 271.257 278.901 271.629 278.755 272.268C278.583 272.71 278.502 272.882 278.295 273.312C277.87 274.075 277.456 274.478 276.825 275.076C276.479 275.417 276.341 275.555 275.835 276.164C274.712 277.762 274.708 278.983 275.046 280.587C274.266 284.206 274.854 287.714 273.302 291.23C272.762 292.724 271.832 293.559 271.08 294.929C270.558 295.584 270.213 295.913 269.537 296.395C269.026 296.675 268.812 296.765 268.262 296.93C265.879 297.292 264.146 295.755 261.769 295.982C260.977 295.883 260.549 295.73 259.887 295.277C259.335 294.432 259.103 293.735 259.388 293.143C261.295 289.18 259.596 286.961 255.893 285.609C255.287 285.388 254.814 284.874 254.083 284.183C253.693 283.754 253.55 283.572 253.218 283.102C252.28 280.282 248.697 281.683 248.258 280.123C246.209 272.826 237.27 274.632 234.102 269.006C233.957 268.748 233.173 268.817 232.423 268.435C230.979 265.43 233.511 264.033 234.656 261.744C235.61 255.712 238.65 250.962 241.548 245.78C243.829 241.181 247.001 237.688 250.748 234.246C252.215 233.574 253.475 233.175 253.931 231.375C260.812 225.581 267.155 219.588 274.638 215.058C276.173 214.13 277.718 213.35 278.74 211.639C281.578 206.885 283.135 206.76 287.669 210.814Z" fill="#C9AD96"/>
<path d="M77.7193 230.189C77.6056 229.324 77.5887 228.879 77.6148 228.102C76.1919 219.344 76.1363 210.923 79.1312 202.844C81.0024 197.796 84.0401 198.166 87.8446 201.993C90.9587 205.126 94.8965 207.716 99.4935 209.612C113.905 221.765 126.632 234.833 132.693 253.331C131.692 256.896 128.918 259.26 128.145 262.973C125.951 264.722 123.494 263.931 121.288 264.65C118.188 265.659 121.057 266.465 121.059 267.68C120.584 268.569 119.99 269.18 119.399 269.073C115.529 268.378 113.597 270.729 111.661 273.821C110.715 274.381 110.025 274.652 108.989 275.086C107.339 275.499 106.069 275.466 104.484 274.87C101.456 271.742 102.207 267.778 101.242 264.318C100.383 261.24 99.1264 258.967 96.1848 257.391C92.111 255.207 91.7359 253.453 93.9946 249.401C95.7954 246.171 96.1474 243.408 92.1772 241.628C90.1549 240.721 89.3677 239.534 90.5241 237.34C91.7845 234.948 91.5078 232.622 90.0507 230.255C87.8265 226.643 88.6605 222.238 87.3296 218.329C85.4508 218.827 83.9727 219.819 82.6934 221.685C80.0977 228.549 82.0277 234.993 83.0045 241.449C83.1513 242.42 83.4235 243.375 83.4833 244.756C84.6443 251.483 86.5964 257.537 89.9859 263.507C90.2046 264.135 90.2679 264.395 90.374 265.056C90.9106 272.382 89.0285 279.658 93.6315 286.385C93.87 287.047 93.9269 287.327 93.9669 288.036C92.5879 291.665 90.5249 291.433 88.7538 289.11C87.0589 286.888 85.3925 284.219 85.7466 281.366C86.8921 272.138 83.4348 263.758 81.4684 255.087C79.6402 247.025 78.5666 238.837 77.7193 230.189Z" fill="#CBB39C"/>
<path d="M100.145 210.925C98.0263 211.068 96.1352 210.45 95.029 209.05C93.1285 206.644 90.653 205.862 87.8816 205.189C86.8335 204.935 82.4471 205.575 86.2136 202.209C86.8182 201.668 86.5611 200.994 85.9733 200.524C85.1353 199.853 84.138 199.686 83.167 200.049C80.5317 201.034 79.6111 203.31 78.9936 205.798C77.2501 212.823 78.3663 219.982 77.82 227.42C72.2733 225.795 76.2441 221.689 75.6543 218.639C74.3727 212.014 77.8021 205.856 78.193 199.319C78.2775 197.906 83.1666 195.145 84.9436 195.731C96.7804 199.634 106.545 207.044 115.241 215.818C120.292 220.914 125.817 225.452 129.575 231.941C132.908 237.695 139.049 241.3 143.051 247.011C145.993 251.209 151.791 254.314 158.153 254.634C160.129 260.016 161.489 265.111 159.21 270.751C158.825 271.296 158.595 271.52 158.523 271.79C158.489 271.919 158.598 271.715 158.96 271.494C159.966 270.929 160.714 270.818 161.874 270.953C162.493 271.143 162.73 271.253 163.271 271.611C164.577 273.16 164.979 274.603 164.457 276.557C158.558 277.345 154.594 280.943 150.34 284.599C149.683 284.602 149.492 284.311 149.245 284.196C148.748 283.965 148.681 284.097 149.179 284.617C148.872 285.699 148.214 286.167 147.131 286.617C146.097 286.749 145.466 286.559 144.722 285.829C144.143 284.568 143.867 283.502 142.436 282.885C140.858 281.473 140.582 279.977 141.092 278.003C141.329 277.541 141.446 277.376 141.785 277.03C142.158 276.767 142.312 276.685 142.621 276.424C142.823 275.905 142.753 275.584 142.5 274.998C142.354 274.512 142.321 274.305 142.322 273.771C142.755 272.254 143.59 271.548 145.145 271.225C145.955 271.241 146.405 271.339 147.142 271.642C147.625 271.901 147.807 272.018 148.231 272.339C149.055 273.049 149.38 273.848 150.503 274.044C153.186 269.463 150.249 265.201 150.266 260.413C148.441 263.682 146.35 262.785 143.941 261.288C143.002 260.453 142.544 259.689 142.059 258.571C141.763 257.699 141.646 257.104 141.424 256.245C141.256 255.802 141.189 255.626 141.015 255.19C140.757 254.583 140.598 254.239 140.287 253.643C140.038 253.215 139.937 253.041 139.694 252.596C139.125 251.605 138.727 250.866 137.907 250.027C137.556 249.617 137.427 249.444 137.134 248.992C136.441 247.354 135.972 245.963 134.784 244.605C134.373 244.275 134.199 244.152 133.763 243.834C133.326 243.506 133.149 243.373 132.706 243.034C126.205 238.177 122.693 231.155 117.526 225.549C115.008 222.816 112.186 220.648 109.381 218.36C105.53 215.221 102.641 211.098 98.4552 207.86C97.7343 207.601 97.4485 207.016 96.9883 207.18C96.6078 207.316 96.7208 207.401 97.4374 207.265C99.0091 208.171 100.429 208.809 100.145 210.925Z" fill="#87735D"/>
<path d="M287.918 210.717C286.574 210.468 285.313 209.601 283.924 209.275C282.503 208.941 279.966 209.215 280.384 210.773C281.557 215.142 277.993 214.836 275.982 215.924C268.327 220.066 262.725 226.886 255.272 231.782C254.217 232.918 253.786 234.227 252.307 234.905C248.192 237.698 246.516 242.257 242.987 245.587C240.546 249.448 237.245 252.349 236.106 256.67C235.683 258.275 234.894 259.762 236.086 261.69C234.848 263.796 233.503 265.575 231.995 268.002C231.71 268.838 231.589 269.028 231.199 269.431C230.717 269.734 230.504 269.825 229.947 269.986C228.392 270.228 227.258 269.675 225.688 269.722C222.375 269.805 219.412 270.139 216.246 268.709C215.278 267.847 215.014 267.064 214.927 265.79C215.841 262.52 217.197 259.88 219.096 257.132C222.316 252.065 227.988 250.245 231.405 245.868C232.995 243.83 235.42 242.959 236.787 240.006C238.355 236.62 242.82 234.684 245.641 231.748C254.874 222.141 265.59 214.544 277.401 207.963C278.447 207.067 279.461 207.565 280.64 207.271C280.938 207.084 281.282 206.919 281.469 206.96C281.938 206.869 282.22 206.737 282.925 206.804C283.347 207.005 283.716 206.918 283.888 207C284.432 207.357 284.85 207.518 285.583 207.775C287.396 208.018 288.195 208.711 287.918 210.717Z" fill="#7D6348"/>
<path d="M91.5515 296.385C91.2957 295.636 91.1696 295.161 91.0529 294.315C93.6659 291.291 93.4255 285.489 99.6764 286.532C105.542 287.829 105.109 288.156 103.19 293.43C100.417 301.048 96.0149 307.808 92.9586 315.233C92.1645 317.162 92.3719 319.143 92.9771 321.449C93.0636 325.122 90.86 327.142 88.6756 329.149C86.7684 330.902 84.5557 332.383 83.5176 335.205C86.798 335.371 88.7894 330.325 92.5663 333.539C89.447 340.306 91.6467 346.782 92.7257 353.61C92.8319 354.469 92.7862 354.963 92.5131 355.804C92.1644 356.339 91.9787 356.521 91.4509 356.896C89.0558 357.605 87.0034 357.599 84.6228 356.903C83.3821 355.699 83.7744 353.243 80.9272 353.834C80.2959 353.547 80.0352 353.308 79.7317 353.206C70.4409 350.095 71.7886 351.899 72.5736 340.312C72.8307 336.516 73.9594 332.959 76.0859 329.608C79.2114 324.684 79.4153 318.652 81.4784 313.236C83.4226 308.131 86.3948 304.453 90.6175 300.969C91.0484 300.17 91.1281 299.488 91.401 298.328C91.7279 297.461 91.7568 297.064 91.5515 296.385Z" fill="#836547"/>
<path d="M80.7413 352.514C82.262 353.326 85.0214 352.198 84.0535 355.649C86.4869 356.776 88.9479 357.54 91.7679 356.228C92.0066 356.003 92.0003 356 92.0016 356.003C92.9959 355.166 94.0847 354.876 95.6622 355.72C97.102 356.158 98.3457 355.762 99.6148 357.381C94.281 359.964 88.891 360.566 83.354 359.516C73.9259 357.728 73.4325 357.792 76.2857 366.781C78.6155 374.12 82.6543 380.854 86.2437 387.727C89.35 393.676 96.2053 395.938 99.1184 402.164C99.826 403.676 104.31 403.819 106.546 405.906C107.833 407.107 108.406 408.3 106.517 408.753C103.644 409.444 104.076 411.433 104 413.356C103.683 421.347 101.705 428.742 98.7881 436.336C95.8284 444.041 92.6175 451.951 91.6665 460.487C91.0952 465.615 88.9236 470.565 87.1615 475.81C85.2408 471.476 87.83 467.324 88.4913 463.084C89.6726 455.51 91.9922 448.088 94.4529 440.739C95.736 436.907 95.0971 432.549 96.86 428.542C98.5703 424.654 99.3022 420.349 100.329 416.18C101.903 409.793 101.72 407.744 95.9881 405.284C92.7981 403.915 93.723 399.258 89.8855 399.009C90.4851 395.579 85.4543 397.182 85.2335 394.007C84.111 393.265 83.1567 393.735 82.1213 393.155C79.1921 386.708 79.6854 379.11 73.4538 374.226C72.226 373.114 71.9556 371.971 72.7108 370.277C72.9525 369.876 73.0227 369.969 72.9773 370.005C73.0635 369.91 73.1951 369.778 73.2693 369.374C72.4855 365.682 71.7591 362.264 71.0739 358.435C71.3659 357.797 71.5974 357.545 71.6988 357.233C73.7154 351.024 73.7136 351.023 80.7413 352.514Z" fill="#A8A291"/>
<path d="M158.443 272.097C159.35 266.276 157.934 260.834 158.028 255.149C161.034 255.406 162.883 252.571 165.889 252.987C169.743 252.003 173.348 252.603 177.341 252.752C178.218 252.915 178.689 252.882 179.505 252.925C183.513 251.951 187.246 252.719 191.362 252.766C193.019 255.056 195.066 254.974 197.067 254.88C199.908 254.748 202.68 254.987 205.768 256.115C208.302 256.581 210.378 257.129 212.768 257.802C213.065 258.006 212.988 258.028 212.975 257.99C214.01 258.929 215.335 258.303 216.832 258.74C217.217 259.151 217.279 259.387 217.222 259.966C215.972 261.568 214.249 261.846 212.926 262.874C211.444 264.024 209.969 263.789 209.367 261.074C209.721 264.365 209.994 267.317 208.375 269.961C206.355 273.261 204.064 273.236 202.102 269.884C201.517 268.884 201.139 267.78 200.682 266.715C200.293 265.811 200.027 264.835 199.019 263.863C197.657 265.223 197.197 267.853 194.639 267.717C192.267 267.59 190.783 266.137 189.462 264.316C188.446 262.917 186.697 262.607 184.847 261.945C181.474 262.562 179.345 264.856 176.395 266.353C175.248 266.713 174.388 266.766 173.225 266.825C172.725 266.788 172.529 266.754 172.061 266.631C171.424 266.403 171.049 266.373 170.353 266.399C169.848 266.28 169.654 266.184 169.218 265.861C168.227 264.718 167.938 263.595 167.541 262.513C167.102 261.317 166.815 259.632 164.943 260.515C163.316 261.283 163.715 262.49 164.589 263.775C166.846 267.096 165.986 269.63 162.15 271.537C161.132 271.795 160.419 271.886 159.347 271.99C158.834 272.129 158.681 272.255 158.443 272.097Z" fill="#4F3A2A"/>
<path d="M259.722 295.248C260.457 295.031 260.891 295.01 261.652 294.976C264.95 295.656 267.534 297.024 269.884 299.266C270.607 299.124 271.027 299.081 271.769 299.085C272.296 299.15 272.503 299.199 272.995 299.392C273.434 299.682 273.587 299.828 273.962 300.564C272.824 307.9 274.886 313.472 279.842 318.152C281.931 320.125 282.653 322.866 282.903 325.602C283.679 334.1 285.759 342.404 286.254 350.972C286.504 355.311 284.006 358.743 283.66 363C281.281 362.75 280.763 360.26 278.669 359.372C281.403 348.165 279.773 337.565 276.514 327.109C275.873 325.053 275.318 322.962 274.581 320.934C273.575 318.171 272.114 315.887 268.944 315.172C265.567 314.41 263.264 312.12 262.324 308.976C261.004 304.565 259.037 300.239 259.722 295.248Z" fill="#7F6B54"/>
<path d="M260.435 450.174C256.014 445.152 256.423 438.722 254.349 433.18C253.82 431.766 253.474 430.311 252.574 428.988C250.603 426.091 250.829 422.668 250.294 419.122C247.852 417.518 245.693 418.112 243.448 418.933C241.516 419.64 239.419 420.932 237.543 418.233C238.369 414.483 241.356 413.703 244.436 412.515C246.217 412.281 247.339 411.554 248.567 410.307C257.137 403.497 265.902 397.349 270.417 387.179C271.115 385.608 272.271 384.422 274.443 384.072C275.574 384.156 276.228 384.485 277.007 385.317C277.281 385.872 277.335 386.119 277.198 386.693C274.293 388.235 274.548 391.139 274.393 393.153C274.269 394.761 277.229 394.572 278.924 395.238C278.078 397.56 276.176 397.084 274.506 397.12C270.996 397.194 268.313 398.226 266.537 401.752C265.514 403.783 264.343 406.115 262.108 407.699C258.6 408.537 256.57 411.505 253.733 413.151C251.721 414.319 252.292 417.314 253.041 418.545C257.255 425.469 256.136 433.774 259.292 440.951C260.432 443.544 262.363 446.031 261.997 449.581C261.652 450.308 261.208 450.442 260.435 450.174Z" fill="#9F9D90"/>
<path d="M100.268 287.867C97.9606 287.45 95.9469 286.924 95.2982 289.774C94.8336 291.816 93.0296 292.499 91.3565 293.785C89.607 294.583 90.5454 296.396 89.5062 297.297C88.004 293.302 88.2287 288.768 84.3948 285.639C83.7745 285.133 82.9741 281.337 84.1934 278.605C86.2478 274.002 82.9167 269.417 82.973 264.286C82.831 263.741 82.6703 263.625 82.3172 263.281C82.1248 263.053 81.9495 262.706 81.9741 262.514C81.3192 260.789 81.0193 259.202 81.0186 257.245C80.2589 256.451 78.0986 258.999 78.9511 255.637C79.7786 252.375 79.7589 248.599 78.9966 245.307C78.0501 241.219 78.9457 236.6 75.603 233.051C74.0518 231.404 77.5968 231.944 77.4201 230.119C79.9823 233.244 79.1552 237.394 79.9186 241.2C81.1542 247.359 82.1923 253.548 83.9296 259.6C85.8055 266.135 87.5091 272.707 86.8527 279.617C86.535 282.962 88.128 285.731 89.6617 288.47C90.5117 289.988 91.7172 290.802 92.9731 288.33C93.5969 285.384 94.519 282.872 97.1163 281.741C100.713 280.174 100.545 275.817 103.709 273.894C105.432 274.089 106.838 274.157 108.661 274.282C110.799 274.32 112.686 274.469 113.082 276.421C113.422 278.1 111.772 278.891 110.494 279.682C106.851 281.94 103.193 284.186 100.268 287.867Z" fill="#87735D"/>
<path d="M80.914 352.364C80.5429 352.67 80.0298 352.734 79.5599 352.619C75.8873 351.726 73.064 352.016 73.1731 356.863C73.1911 357.661 72.9068 358.576 71.3958 358.087C71.1152 358.025 70.9741 357.674 70.9619 357.485C70.8343 357.03 70.7191 356.764 70.7773 356.099C70.9404 355.389 70.9384 355.078 70.9525 354.534C70.7329 353.914 70.4209 353.614 69.9344 353.072C69.9557 352.444 70.0009 352.12 69.967 351.539C69.0995 349.637 69.5236 348.122 70.7342 346.352C67.4212 339.78 70.0339 333.82 73.4489 329.103C77.1397 324.005 78.5277 318.008 79.7371 312.631C80.73 308.217 83.3004 306.084 85.5953 303.468C86.519 302.415 88.0628 300.311 90.6583 300.691C87.6601 305.559 83.4131 309.679 81.7405 315.412C80.452 319.828 80.7304 324.739 78.1114 328.708C74.4182 334.306 74.3232 340.759 73.1704 346.984C72.8247 348.85 73.6884 349.55 75.2673 350.296C77.0615 351.143 79.3599 350.228 80.914 352.364Z" fill="#87735D"/>
<path d="M277.317 386.119C276.521 385.748 276.05 385.499 275.339 385.135C272.69 382.709 274.438 380.067 274.568 377.583C274.75 374.134 275.677 370.806 276.739 367.179C276.585 366.036 278.68 366.452 277.445 365.085C274.177 361.849 270.36 359.525 268.518 355.02C268.578 354.415 268.658 354.177 269.024 353.687C273.77 352.738 276.557 355.454 279.223 358.71C281.177 359.513 282.448 360.85 283.415 362.845C283.352 363.196 283.123 363.487 283.137 363.672C282.961 365.084 281.911 366.118 282.174 367.753C282.439 373.637 278.915 378.515 279.049 384.494C278.887 385.671 278.369 386.069 277.317 386.119Z" fill="#9C9B8D"/>
<path d="M142.368 219.158C144 217.371 144.433 217.984 145.248 219.612C147.773 224.66 149.434 230.214 152.218 234.954C155.283 240.172 154.299 245.597 155.53 250.828C155.569 250.995 155.101 251.282 154.469 251.911C151.847 240.323 144.504 230.848 142.368 219.158Z" fill="#E4F0EB"/>
<path d="M217.155 242.33C216.612 243.918 216.15 245.136 215.941 246.396C215.565 248.655 213.301 249.624 212.119 249.293C210.131 248.737 211.959 246.649 212.21 245.625C213.521 240.294 216.585 235.629 218.659 230.592C220.56 225.974 222.793 221.599 225.499 217.29C227.967 218.775 226.795 220.279 226.01 222.491C224.853 225.749 222.272 228.175 221.343 231.313C220.257 234.988 218.839 238.483 217.155 242.33Z" fill="#E6F4EB"/>
<path d="M262 408.048C264.359 407.942 266.012 409.183 267.322 410.931C270.433 415.084 275.834 416.403 278.997 420.538C281.108 423.298 283.439 425.919 285.905 428.366C287.291 429.742 286.214 430.183 285.49 430.982C283.557 433.115 284.113 430.324 283.569 429.935C276.923 425.188 271.764 418.83 265.745 413.409C264.167 411.988 263.078 410.461 262.081 408.367C262.096 408 262 408 262 408.048Z" fill="#E1F1E9"/>
<path d="M276.975 386.254C277.502 385.706 278.014 385.413 278.803 385.02C285.3 387.279 291.519 389.558 297.582 392.395C300.512 393.766 303.644 394.38 306.73 397.657C302.274 398.192 298.819 397.683 296.069 395.479C293.341 393.292 289.416 394.149 287.107 391.507C284.58 388.616 280.09 390.172 277.357 387.074C276.991 386.85 276.975 386.68 276.975 386.254Z" fill="#E7F4ED"/>
<path d="M81.5481 392.957C82.7699 393.033 83.6296 393.167 84.6926 393.566C77.0653 397.795 69.2347 401.76 61.4041 405.724C65.9092 398.171 73.5368 395.576 81.5481 392.957Z" fill="#E3F1ED"/>
<path d="M72.5622 369.982C73.0168 371.011 73.0812 372.146 73.1402 373.707C71.0858 372.702 69.0121 373.174 66.8686 373.946C62.5265 375.512 57.9238 376.088 53.5191 377.318C51.7452 377.814 51.4608 376.118 50.2133 376.721C55.72 372.561 62.0205 371.504 68.4606 371.098C69.8425 371.011 70.9596 370.506 72.5622 369.982Z" fill="#E0EEE7"/>
<path d="M260.135 450.346C260.576 449.959 260.992 449.981 261.721 449.993C265.21 457.568 266.57 465.585 267.309 473.833C266.425 473.659 265.463 473.363 265.422 472.97C264.615 465.329 261.053 458.352 260.135 450.346Z" fill="#ABB0A1"/>
<path d="M58.2398 360.716C59.1932 361.012 60.1976 360.814 60.4509 361.162C61.1194 362.081 60.0203 362.693 59.4796 362.749C52.1142 363.51 45.1368 367.308 36.8918 365.532C43.4854 360.677 51.2351 362.645 58.2398 360.716Z" fill="#E2F3EC"/>
<path d="M86.2202 413.185C83.5765 416.332 81.1884 419.232 78.8002 422.132C78.3836 421.706 77.9671 421.279 77.5506 420.852C78.8036 413.549 85.1688 408.025 91.532 408.403C90.6777 410.863 87.7133 410.946 86.2202 413.185Z" fill="#E5F4F0"/>
<path d="M290.366 239.878C288.265 238.131 289.235 235.88 289.259 233.823C289.34 226.731 289.433 219.646 288.891 212.276C290.837 214.271 292.048 216.711 291.197 220.12C291.824 223.703 291.404 226.902 291.211 230.512C290.993 231.738 290.997 232.539 290.919 233.732C290.345 234.831 290.523 235.622 290.703 236.647C290.808 237.853 290.761 238.806 290.366 239.878Z" fill="#7D6348"/>
<path d="M302.303 367.137C304.403 367.419 305.602 368.595 306.827 369.645C306.956 369.756 306.394 371.196 306.057 371.237C304.627 371.413 303.38 371.585 301.809 370.529C299.662 369.088 296.802 368.655 294.202 367.967C293.045 367.662 293.001 366.931 293.134 366.147C293.437 364.36 294.261 365.961 294.754 366.027C297.151 366.344 299.742 365.365 302.303 367.137Z" fill="#E5F2EC"/>
<path d="M277.208 291.539C276.896 293.471 276.808 295.034 276.418 296.846C275.839 297.13 275.561 297.165 274.931 296.969C272.112 293.528 274.776 290.279 274.506 286.638C274.504 285.4 274.501 284.575 274.598 283.341C275.045 279.669 275.135 276.308 277.844 273.378C278.109 273.062 278.024 273.074 278.06 273.098C278.294 272.987 278.493 272.853 278.937 272.982C280.538 273.717 280.736 274.451 279.975 275.708C279.081 277.186 278.618 278.851 278.347 280.805C276.777 284.323 277.909 287.796 277.208 291.539Z" fill="#817262"/>
<path d="M283.492 263.044C285.11 255.781 287.085 248.459 289.396 240.994C290.576 248.974 287.27 255.995 283.492 263.044Z" fill="#7D6348"/>
<path d="M285.305 399.796C286.632 400.222 288.826 398.502 288.459 400.306C288.045 402.344 290.823 403.129 289.595 404.433C288.719 405.363 287.16 405.067 285.627 404.364C284.476 403.836 284.135 401.577 282.266 402.607C281.655 401.443 280.224 399.808 280.575 399.199C282 396.727 283.493 399.253 285.305 399.796Z" fill="#E3EBE9"/>
<path d="M72.328 287.808C71.5109 285.099 68.4637 283.104 70.627 279.796C71.8225 282.361 73.005 284.673 73.9563 287.077C74.2405 287.795 73.3543 288.038 72.328 287.808Z" fill="#C6CAC7"/>
<path d="M216.6 260.11C216.862 259.57 216.876 259.325 216.944 258.643C217.066 257.16 217.819 256.989 219.047 256.922C218.91 259.626 218.299 262.292 216.305 264.77C215.817 265.122 215.589 265.239 215.032 265.157C213.735 262.89 214.671 261.512 216.6 260.11Z" fill="#9B8369"/>
<path d="M279.189 273.228C279.002 273.215 278.822 273.184 278.369 273.138C278.066 272.668 278.037 272.213 278.007 271.419C277.602 270.606 277.464 270.066 277.805 269.076C278.128 268.259 278.238 267.823 278.506 267.223C279.419 266.556 279.841 265.485 281.249 265.951C281.515 266.43 281.541 266.646 281.657 267.127C281.528 267.742 281.309 268.09 280.975 268.728C280.925 269.4 280.779 269.666 280.337 270.044C280.253 270.274 280.272 270.604 280.264 270.769C280.147 271.562 279.89 272.123 279.354 272.901C279.21 273.178 279.195 273.211 279.189 273.228Z" fill="#C1AB96"/>
<path d="M191.605 252.599C188.117 252.962 184.454 252.951 180.321 252.971C179.98 252.429 179.79 251.194 180.384 251.424C184.015 252.831 187.795 251.46 191.605 252.599Z" fill="#B7C4B4"/>
<path d="M177.545 252.637C174.191 252.947 170.635 252.946 166.631 252.919C169.799 250.646 173.606 252.176 177.545 252.637Z" fill="#B0C1B0"/>
<path d="M281.755 265.959C280.742 266.416 279.993 266.617 278.955 266.939C278.886 265.983 279.02 264.878 279.36 263.841C279.58 263.167 280.1 262.592 280.485 261.972C280.881 262.62 281.276 263.268 281.944 264.094C282.151 264.749 282.086 265.227 281.755 265.959Z" fill="#817262"/>
<path d="M277.36 291.717C277.368 288.474 276.489 284.981 277.761 281.286C277.946 284.506 277.84 288.016 277.36 291.717Z" fill="#9DA193"/>
<path d="M291.362 230.745C291.042 227.792 291.094 224.646 291.156 221.018C292.608 223.803 291.672 227.206 291.362 230.745Z" fill="#C9AD96"/>
<path d="M212.899 257.662C210.773 258.32 208.799 257.034 206.412 256.452C208.495 255.863 210.765 255.728 212.899 257.662Z" fill="#9E9C93"/>
<path d="M282.322 367.9C281.15 366.578 280.986 365.237 282.868 364.008C285.464 365.491 282.124 366.382 282.322 367.9Z" fill="#D2D3CE"/>
<path d="M70.5892 346.019C70.7367 347.542 69.7373 348.911 70.0799 350.917C68.6387 349.472 68.1693 347.685 70.5892 346.019Z" fill="#A8A291"/>
<path d="M274.155 296.938C275.005 296.827 275.226 296.884 275.782 297.019C275.646 298.312 275.175 299.528 274.444 300.949C274.184 301.154 273.968 300.971 273.719 300.722C273.47 300.473 273.179 300.182 273.034 300.037C272.416 299.337 272.403 298.722 272.835 297.801C273.189 297.389 273.358 297.248 274.155 296.938Z" fill="#7F6B54"/>
<path d="M80.7704 257.32C82.3294 258.108 81.5629 260.066 82.14 261.919C81.7703 260.732 78.6155 259.889 80.7704 257.32Z" fill="#CBCDC4"/>
<path d="M280.59 207.086C280.364 208.057 279.294 207.762 278.102 208.04C277.591 207.426 277.117 206.482 277.326 206.293C278.587 205.155 279.114 207.289 280.59 207.086Z" fill="#DBD5C9"/>
<path d="M279.514 273.179C279.35 272.532 279.49 271.887 279.943 271.088C280.65 271.035 281.386 271.127 281.388 271.235C281.41 272.278 280.648 272.773 279.514 273.179Z" fill="#817262"/>
<path d="M216.593 258.174C216.996 258.205 216.93 258.278 216.95 258.314C215.823 259.18 214.621 259.115 213.176 258.258C214.038 258.017 215.114 258.08 216.593 258.174Z" fill="#9E9C93"/>
<path d="M91.333 296.404C92.3223 296.406 93.1365 296.731 91.7796 297.787C91.4775 297.466 91.3608 297.081 91.333 296.404Z" fill="#87735D"/>
<path d="M290.864 236.552C289.878 236.241 289.824 235.395 290.594 234.277C290.85 234.818 290.862 235.511 290.864 236.552Z" fill="#C9AD96"/>
<path d="M285.811 207.691C285.302 207.867 284.749 207.75 284.127 207.357C284.628 207.187 285.198 207.293 285.811 207.691Z" fill="#DBD5C9"/>
<path d="M69.5378 352.916C70.2193 353.026 70.6056 353.294 70.9761 353.932C70.3664 353.922 68.9742 354.661 69.5378 352.916Z" fill="#A8A291"/>
<path d="M280.508 270.27C280.297 269.935 280.341 269.597 280.622 269.138C281.942 269.52 281.451 269.901 280.508 270.27Z" fill="#817262"/>
<path d="M82.1512 263.286C82.4655 263.016 82.6814 263.162 82.8822 263.675C82.6389 263.941 82.3676 263.829 82.1512 263.286Z" fill="#CBCDC4"/>
<path d="M281.887 267.521C281.747 267.393 281.795 267.449 281.764 267.47C281.84 267.424 281.945 267.304 282.051 267.304C282.155 267.303 282.259 267.425 282.363 267.493C282.251 267.545 282.139 267.598 281.887 267.521Z" fill="#817262"/>
<path d="M283.176 206.728C283.065 207.116 282.783 207.227 282.078 207.17C282.017 206.6 282.175 205.703 283.176 206.728Z" fill="#DBD5C9"/>
<path d="M70.6499 355.833C71.0115 355.966 71.0724 356.232 71.0415 356.897C70.4051 357.009 69.6682 356.808 70.6499 355.833Z" fill="#A8A291"/>
<path d="M73.143 369.336C73.2119 369.101 73.4375 369.515 73.4375 369.515C73.4375 369.515 73.152 369.784 73.042 369.913C72.9319 370.042 73.0742 369.572 73.143 369.336Z" fill="#E0EEE7"/>
<path d="M269.449 353.655C269.284 353.968 269.255 354.458 269.232 354.702C268.603 357.502 268.515 360.19 267.126 362.313C267.408 362.866 267.662 363.033 267.999 363.153C269.762 363.777 273.006 363.161 272.818 365.514C272.616 368.051 269.409 367.75 267.383 367.602C261.628 367.183 256.659 368.512 252.283 372.495C249.552 374.98 245.821 375.713 242.301 376.65C241.907 376.754 241.672 376.941 241.772 377.062C241.853 377.159 242.083 377.131 242.272 377.512C242.17 378.076 242.043 378.287 241.61 378.73C238.197 380.263 234.999 379.93 231.441 379.379C229.702 378.789 228.866 377.748 228.246 376.478C228.215 376.415 227.938 376.382 227.899 376.432C227.818 376.534 227.822 376.702 227.725 377.136C226.256 382.479 224.356 387.224 220.773 391.253C219.468 392.72 218.25 393.711 216.005 393.866C215.437 393.823 215.211 393.79 214.652 393.712C204.309 399.371 194.579 398.817 186.019 392.081C183.449 390.06 181.516 387.716 181.713 383.843C182.881 380.631 185.607 378.743 186.525 375.377C186.727 374.836 186.818 374.624 187.098 374.124C188.306 372.607 189.913 372.117 191.193 370.674C191.612 370.291 191.787 370.145 192.234 369.791C195.869 366.305 195.777 364.361 191.669 362.756C183.176 359.438 174.62 359.416 166.136 363.084C163.89 364.055 163.942 365.328 165.338 366.852C167.344 369.041 169.4 371.196 172.142 373.129C172.565 373.557 172.717 373.746 173.05 374.252C174.298 377.287 175.987 379.707 177.098 382.797C177.501 386.148 175.69 388.113 173.796 390.003C168.848 394.94 156.438 397.732 150.488 395.104C142.805 391.71 135.546 387.617 129.352 381.309C128.428 380.81 127.975 380.324 127.854 379.292C128.121 378.374 128.413 377.803 128.462 376.841C128.499 376.112 128.551 375.699 128.92 375.157C129.354 371.267 126.212 372.396 124.43 372.124C120.695 371.553 117.116 370.727 113.476 369.605C109.035 368.237 108.129 362.76 103.463 362.154C104.161 359.356 103.283 356.278 104.965 353.302C105.206 352.559 105.514 352.231 106.2 351.83C109.707 351.375 109.07 348.071 110.745 346.137C111.408 345.002 111.989 344.234 113.007 343.343C114.516 342.516 115.781 342.303 117.498 342.479C121.355 342.028 124.252 343.955 127.416 344.767C130.431 345.542 133.495 346.71 136.396 343.535C139.334 342.194 142.352 342.563 145.233 340.966C147.982 339.166 151.875 340.876 153.35 338.534C154.812 336.212 152.689 333.113 152.545 330.3C152.383 327.155 152.973 323.958 151.843 320.512C150.695 306.559 138.781 298.77 125.785 303.181C123.757 303.87 121.872 305.128 119.216 304.603C116.308 301.907 117.717 299.736 119.956 298.343C124.275 295.658 128.55 292.712 134.167 293.366C137.34 293.736 139.765 291.631 142.119 289.836C143.553 288.743 144.662 287.228 146.671 286.231C147.612 285.639 148.266 285.308 149.028 284.71C149.001 284.307 148.865 284.169 148.987 284.166C152.941 283.313 151.692 278.234 155.866 276.89C158.469 276.051 160.564 275.378 163.45 276.021C163.978 275.933 164.166 275.974 164.607 276.136C165.213 276.408 165.555 276.368 166.12 275.988C168.928 274.013 170.881 271.521 173.705 269.523C175.691 268.787 177.245 268.178 178.577 266.773C182.857 262.262 183.35 262.31 188.296 266.464C189.411 267.499 188.493 270.528 191.533 268.675C193.74 267.33 195.432 269.379 196.953 270.93C198.987 273.005 199.202 275.909 200.212 278.732C203.235 276.777 205.353 272.055 209.61 276.716C210.722 278.508 211.68 279.982 213.604 281.028C222.84 283.189 227.766 290.542 233.511 296.498C237.202 300.324 241.396 304.116 243.11 309.603C244.702 314.702 244.791 319.862 244.024 325.331C238.136 326.072 233.011 323.158 227.105 323.289C224.168 322.937 225.366 318.737 222.72 319.023C219.573 319.364 216.816 321.104 214.294 322.956C211.145 325.268 208.472 327.969 209.815 332.791C209.809 333.277 209.822 333.451 209.774 333.606C209.621 334.094 209.905 334.417 210.207 334.123C213.135 331.278 216.781 329.646 220.45 328.115C229.555 324.315 238.515 324.389 247.446 329.72C248.339 330.984 248.538 332.13 248.829 333.251C250.311 338.96 251.338 339.798 257.363 340.224C259.502 340.375 261.689 340.282 263.839 341.86C264.409 342.498 264.646 342.917 264.882 343.715C265.137 345.072 264.726 346.237 265.933 347.299C267.673 349.259 269.867 350.572 269.449 353.655Z" fill="#E9E4D2"/>
<path d="M237.551 417.669C241.354 419.6 243.856 416.596 246.839 415.904C249.294 415.334 250.25 415.56 250.092 418.499C244.676 421.873 239.517 424.927 235.309 429.872C230.498 435.526 223.023 437.321 216.229 439.947C205.945 443.921 196.009 449.01 185.473 452.065C175.439 454.975 165.513 452.58 156.734 446.472C152.421 443.472 147.984 440.838 142.941 438.967C135.807 436.321 130.798 430.422 125.584 425.151C123.296 422.837 125.552 419.992 129.274 418.953C135.591 417.191 141.78 419.117 148.465 418.988C153.007 419.224 153.527 423.108 155.774 425.734C156.02 425.985 155.999 426 156.008 425.99C156.85 426.867 157.719 427.717 158.803 428.782C159.024 428.992 158.999 429.004 159 428.99C165.818 434.168 173.03 438.073 182.407 435.957C191.356 434.758 198.03 430.303 203.634 423.957C204.837 422.595 206.039 421.232 207.562 419.624C208.738 418.846 209.706 418.332 210.67 418.429C218.983 419.263 227.115 417.424 235.332 416.876C235.997 416.832 236.634 417.09 237.551 417.669Z" fill="#CFC8B8"/>
<path d="M171.619 433.548C165.465 428.936 162.233 423.448 161.09 416.319C161.333 415.802 161.535 415.669 162.098 415.524C164.273 416.077 164.908 417.674 165.581 419.183C166.619 421.511 168.187 423.421 169.987 425.18C175.734 430.798 181.419 430.46 186.578 424.149C188.16 422.213 189.546 420.143 190.711 417.917C191.544 416.325 192.191 414.463 194.838 414.453C195.676 414.77 196.075 415.093 196.602 415.849C197.421 428.295 182.818 439.574 171.619 433.548Z" fill="#AD7062"/>
<path d="M162.612 415.765C162.125 416.047 161.927 416.019 161.43 415.963C159.896 412.818 161.258 409.023 158.396 405.953C158.258 405.42 158.333 405.21 158.484 404.674C159.755 402.796 159.245 400.92 159.705 398.893C162.769 396.293 166.357 395.388 169.586 393.762C173.75 391.666 177.26 389.092 177.065 383.38C177.647 381.411 177.926 379.506 180.708 380.195C181.165 380.596 181.314 380.793 181.574 381.341C181.718 382.178 181.689 382.659 181.557 383.487C181.078 387.398 182.33 390.172 185.194 392.355C186.589 393.418 188.125 394.523 188.027 396.898C183.186 397.393 180.374 399.345 179.987 404.458C179.844 406.36 178.168 406.69 176.852 404.864C176.66 404.598 176.626 404.18 176.394 403.988C174.525 402.442 177.333 397.22 172.281 398.356C165.372 399.908 163.508 402.254 163.636 408.596C163.955 411.198 164.009 413.4 162.612 415.765Z" fill="#765345"/>
<path d="M107.041 352.659C106.346 352.821 105.949 352.839 105.257 352.903C101.785 352.638 98.8425 353.13 96.2174 355.725C94.9371 356.009 93.8701 356.007 92.4029 356.006C91.9916 355.56 91.9802 355.113 91.9663 354.331C92.2528 353.065 92.9244 351.745 92.7003 351.247C91.1727 347.853 93.586 347.737 95.687 347.408C97.1348 347.182 98.6075 347.067 100.39 346.899C102.006 346.492 102.118 345.398 102.422 344.021C104.116 342.245 104.368 339.848 106.555 338.465C109.894 338.419 112.387 339.278 113.216 342.871C112.87 344.249 112.648 345.266 112.193 346.597C111.31 347.916 108.669 346.961 109.551 349.607C110.067 351.158 108.353 351.735 107.041 352.659Z" fill="#BEA480"/>
<path d="M183.209 436.746C173.462 439.789 165.711 436.775 159.134 429.288C163.302 428.833 165.63 434.079 170.642 433.037C171.044 432.984 171.002 433.002 171.006 432.979C174.374 436.134 178.733 434.409 182.849 435.526C183.225 435.979 183.313 436.207 183.209 436.746Z" fill="#A69E8D"/>
<path d="M155.132 400.841C148.377 400.671 142.613 398.233 137.252 394.164C143.778 392.895 149.433 395.462 155.259 398.542C155.622 399.451 155.603 399.996 155.132 400.841Z" fill="#998C7E"/>
<path d="M156.025 425.618C152.352 425.294 152.333 420.904 149.158 419.224C149.113 416.999 150.222 416.697 151.407 418.041C153.299 420.186 155.731 422.059 156.025 425.618Z" fill="#A69E8D"/>
<path d="M128.932 374.956C129.186 375.454 129.167 375.883 129.179 376.634C129.477 377.41 129.539 377.892 129.122 378.659C128.73 379.234 128.614 379.55 128.645 379.994C130.754 381.506 131.215 383.451 130.446 386.339C125.775 383.375 126.488 379.213 128.932 374.956Z" fill="#9E9585"/>
<path d="M154.966 401.451C154.907 400.704 154.964 400.26 155.052 399.481C155.418 398.712 155.86 398.475 156.796 398.496C159.347 399.757 159.728 401.763 159.465 404.327C159.106 404.843 158.932 405.012 158.47 405.405C156.768 404.643 155.609 403.452 154.966 401.451Z" fill="#765345"/>
<path d="M134.288 391.262C132.117 391.855 131.168 390.712 131.035 388.346C133.186 387.725 134.163 388.797 134.288 391.262Z" fill="#9E9585"/>
<path d="M159.039 428.64C157.499 428.889 156.435 428.182 156.002 426.325C157.711 425.854 158.618 426.762 159.039 428.64Z" fill="#A69E8D"/>
<path d="M136.942 394.066C135.952 393.669 135.107 393.112 134.139 392.269C134.016 391.982 133.983 392 133.979 392.018C135.374 391.041 136.578 391.006 137.399 393.164C137.377 393.589 137.086 393.907 136.942 394.066Z" fill="#998C7E"/>
<path d="M130.814 388.175C130.513 388.007 130.312 387.742 130.063 387.23C130.014 386.982 129.999 387 129.991 387.007C130.412 386.784 130.778 386.872 131.101 387.561C131.114 387.887 130.914 388.079 130.814 388.175Z" fill="#9E9585"/>
<path d="M269.629 353.975C268.493 351.672 266.612 350.274 264.732 348.429C264.617 347.661 264.81 347.214 265.393 346.576C272.729 343.724 272.527 343.487 268.198 337.095C264.217 331.215 258.512 329.61 251.865 328.618C248.172 324.402 249.854 319.621 249.507 314.83C248.856 313.573 247.737 313.32 246.762 312.361C245.38 310.025 245.218 307.364 242.739 305.64C241.909 304.657 241.556 303.801 241.14 302.602C240.698 301.121 240.796 299.65 238.722 299.475C237.278 299.246 236.291 298.815 235.504 297.551C235.233 296.725 235.186 296.151 234.73 295.437C234.268 294.974 233.992 294.71 233.519 294.209C232.365 292.905 232.952 290.921 230.87 290.224C230.389 290.006 230.203 289.908 229.761 289.628C228.884 288.885 228.461 288.207 228.287 287.093C228.347 286.446 228.473 286.106 228.845 285.613C228.85 285.508 228.689 285.589 228.256 285.757C225.667 285.906 223.9 284.801 222.153 282.932C219.997 280.302 220.288 278.146 222.477 276.101C225.009 273.737 227.063 270.804 230.698 269.208C230.95 268.953 230.999 268.972 230.977 268.986C231.204 268.786 231.448 268.565 231.843 268.147C231.999 267.956 231.983 268.008 231.958 267.997C234.309 268.515 236.07 265.974 238.42 266.543C239.253 268.452 236.721 268.948 237.008 270.797C240.902 270.55 243.502 274.021 247.52 274.328C249.751 274.499 249.703 277.323 248.545 279.284C250.523 280.379 255.108 276.302 254.026 282.664C255.572 283.709 257.183 284.386 258.736 285.176C262.976 287.333 263.266 289.34 260.075 294.705C259.984 295.381 259.786 295.874 259.931 296.014C263.108 299.095 262 303.499 263.386 307.137C264.719 310.634 266.029 313.625 270.7 313.573C273.248 313.545 274.759 316.185 275.386 318.26C277.448 325.091 281.201 331.451 281.032 338.939C280.937 343.153 280.618 347.388 282.188 351.566C283.199 354.257 281.042 356.477 279.43 358.891C276.109 357.394 273.041 355.689 269.629 353.975Z" fill="#A98861"/>
<path d="M236.491 261.97C234.024 261.785 232.552 260.964 233.747 258.506C235.963 253.948 237.867 249.157 242.534 245.967C242.986 247.519 242.379 249.043 241.277 249.97C237.488 253.16 237.469 257.64 236.491 261.97Z" fill="#9F8467"/>
<path d="M271.201 299.851C269.283 301.364 267.32 303.295 266.975 299.121C266.73 296.157 263.197 297.675 262.159 295.283C264.096 293.149 265.447 295.867 267.593 295.9C268.282 296.223 268.686 296.383 269.427 296.603C270.605 297.499 271.306 298.345 271.201 299.851Z" fill="#A98861"/>
<path d="M275.783 282.736C275.978 283.76 275.971 284.534 275.964 285.697C274.376 287.795 275.739 290.849 272.562 292.031C272.57 288.218 273.227 284.505 273.971 280.401C274.251 279.913 274.444 279.818 274.939 279.837C275.622 280.762 275.422 281.648 275.783 282.736Z" fill="#7F6B54"/>
<path d="M275.984 282.587C275.028 282.575 274.926 281.676 274.692 280.494C273.812 278.714 274.303 277.237 274.785 275.371C275.007 274.977 275.002 275.003 274.991 275.009C275.249 274.739 275.535 274.482 276.094 274.107C276.772 273.709 277.199 273.452 277.867 273.128C277.4 276.104 276.691 279.147 275.984 282.587Z" fill="#C1AB96"/>
<path d="M285.995 243.53C285.944 244.013 285.966 244.219 285.873 244.318C285.717 244.486 285.488 244.587 285.289 244.716C284.692 242.674 284.84 240.735 285.898 238.321C287.507 240.395 285.702 241.781 285.995 243.53Z" fill="#AE8D78"/>
<path d="M282.265 257.771C281.786 255.849 281.888 253.758 283.458 251.865C284.23 254.011 283.106 255.727 282.265 257.771Z" fill="#817262"/>
<path d="M274.744 275.181C274.944 276.421 274.881 277.866 274.727 279.739C274.635 280.169 274.344 280.094 274.201 280.052C272.212 278.286 273.629 276.861 274.744 275.181Z" fill="#A98861"/>
<path d="M252.487 235.124C252.499 233.857 253.422 233.001 254.795 232.165C255.066 233.613 254.658 234.877 252.487 235.124Z" fill="#9F8467"/>
<path d="M269.953 295.003C269.834 293.609 270.43 292.79 271.625 292.048C271.913 291.93 271.985 291.986 272.021 292.013C273.053 293.247 272.476 294.163 271.187 295.142C270.637 295.276 270.405 295.273 269.953 295.003Z" fill="#7F6B54"/>
<path d="M277.831 268.923C278.015 269.225 278.012 269.755 278.008 270.682C277.209 270.562 277.142 269.91 277.831 268.923Z" fill="#A98861"/>
<path d="M281.987 257.986C281.86 258.39 281.745 258.807 281.629 259.223C281.01 258.897 281.324 258.54 281.811 258.102C282.026 258.017 281.999 257.998 281.987 257.986Z" fill="#817262"/>
<path d="M276.051 274.044C276.07 274.243 275.794 274.519 275.248 274.905C275.238 274.717 275.497 274.419 276.051 274.044Z" fill="#A98861"/>
<path d="M268.829 296.02C268.842 295.403 269.044 295.158 269.524 294.853C269.732 294.736 269.925 294.925 270.023 295.019C270.112 295.337 270.104 295.562 269.859 296.028C269.399 296.291 269.174 296.313 268.829 296.02Z" fill="#7F6B54"/>
<path d="M269.3 296.965C268.87 296.923 268.563 296.681 268.092 296.191C267.927 295.944 268.314 295.807 268.511 295.756C268.708 295.704 269.045 296.004 269.217 296.149C269.39 296.293 269.425 296.764 269.3 296.965Z" fill="#7F6B54"/>
<path d="M100.17 288.223C101.142 281.3 107.346 280.162 112.026 277.093C112.035 275.431 109.831 276.047 109.237 274.573C109.329 273.63 109.831 273.257 110.914 273.238C114.735 273.104 118.424 273.397 120.382 269.062C121.624 268.15 122.602 268.205 123.755 269.127C124.161 269.588 124.4 269.821 124.939 269.98C125.725 269.872 126.266 269.852 127.101 269.921C127.974 270.093 128.521 270.319 129.334 270.679C129.78 270.886 129.957 270.974 130.395 271.198C131.008 271.524 131.356 271.717 131.974 272.061C132.425 272.314 132.604 272.421 133.049 272.706C133.488 273.014 133.661 273.145 134.315 273.739C138.265 277.008 139.442 280.079 136.041 283.812C134.919 285.045 135.174 286.242 135.93 287.825C137.737 291.609 136.565 293.055 132.456 292.683C121.971 291.734 114.175 296.377 110.067 305.918C108.861 308.719 107.833 311.427 109.254 314.492C110.001 316.104 109.356 317.386 107.386 318.228C104.172 318.303 101.582 319.517 98.5448 320.314C97.3125 320.507 96.4923 320.8 95.5425 321.627C94.4721 322.285 93.6334 322.602 92.365 322.505C89.8356 318.616 89.5047 314.681 93.2937 311.986C95.7866 310.213 92.378 307.97 94.9549 306.079C100.084 302.316 99.4721 295.092 103.324 290.139C105.342 287.545 101.189 289.494 100.17 288.223Z" fill="#A4825C"/>
<path d="M104.02 273.581C102.75 278.212 101.175 282.277 96.8373 284.207C95.0417 285.006 95.3063 287.254 93.3008 287.954C92.9944 287.978 93.0163 287.691 93.0293 287.548C90.2738 282.46 89.6637 277.117 89.9619 271.556C90.0667 269.602 90.3432 267.572 89.2435 265.319C88.9873 264.974 89.0037 264.642 89.0152 264.476C86.8061 258.233 84.0287 252.349 82.5791 245.563C81.4468 237.051 79.8292 229.001 80.7859 220.38C83.7822 218.222 86.5601 216.446 90.4751 213.943C87.47 219.223 91.136 223.233 90.2691 227.673C89.8032 230.059 94.5021 230.421 93.2914 234.296C92.7138 236.144 92.9814 238.158 90.5018 239.276C98.0805 241.798 98.9362 244.791 94.7904 251.078C94.5521 251.439 93.3712 254.383 94.9547 254.909C104.241 257.989 103.232 265.969 104.02 273.581Z" fill="#D7AB95"/>
<path d="M100.157 211.394C99.0321 209.982 98.1378 208.797 97.1494 207.272C98.2339 206.946 99.5247 206.96 100.313 207.889C105.64 214.17 112.789 218.409 118.448 224.398C123.672 229.927 127.169 236.872 133.467 241.832C134.055 242.181 134.352 242.387 134.809 242.826C134.994 243.025 134.995 242.991 134.98 243C135.882 244.808 137.168 246.43 137.78 248.747C137.978 249.024 137.99 248.996 137.977 249.009C139.12 249.988 139.599 251.447 140.759 252.796C140.971 253.029 141 253.013 140.986 253.014C141.433 253.424 141.483 254.009 141.802 254.781C141.97 255.011 141.997 254.999 141.987 255.009C142.517 255.509 142.484 256.241 142.862 257.165C143.202 258.114 143.433 258.745 143.791 259.596C144.572 262.299 142.353 262.199 140.705 263.064C139.277 263.378 138.238 263.389 136.843 263.065C133.566 260.919 130.813 258.796 132.238 254.259C129.474 251.408 129.14 247.738 127.611 244.655C121.084 231.489 110.49 221.78 100.157 211.394Z" fill="#7A5B3F"/>
<path d="M130.262 271.825C129.459 271.933 128.928 271.853 128.184 271.604C126.769 269.531 124.206 270.172 122.464 268.588C121.914 268.494 121.69 268.476 121.158 268.324C120.111 266.425 117.554 267.631 116.771 265.539C119.906 263.227 123.043 261.096 127.947 262.938C129.039 262.95 129.426 263.051 130.068 263.354C130.498 263.631 130.66 263.76 131.034 264.115C131.598 264.87 132.019 265.332 132.755 265.949C133.105 266.369 133.222 266.557 133.424 267.069C133.488 267.617 133.468 267.84 133.32 268.374C132.523 269.865 131.297 270.542 130.262 271.825Z" fill="#BEA480"/>
<path d="M131.849 254.186C134.792 255.622 133.174 259.598 135.986 261.552C137.177 263.113 137.144 264.478 136.279 266.234C135.942 266.735 135.78 266.916 135.309 267.287C134.524 267.593 134.051 267.588 133.312 267.204C133.041 266.967 133.01 267 133.019 266.981C132.122 266.149 131.278 265.271 130.222 264.177C130.018 263.951 129.993 263.993 130.017 263.988C129.586 263.576 128.995 263.508 128.224 263.15C128.003 262.961 128.012 262.996 128.027 262.981C125.546 258.574 129.119 256.719 131.849 254.186Z" fill="#A78B69"/>
<path d="M121.264 268.902C120.054 274.9 117.928 275.929 111.489 273.452C112.792 271.594 113.935 269.866 110.925 267.229C114.696 267.65 117.364 267.948 120.441 268.218C120.85 268.191 120.923 268.141 120.923 268.097C121.149 268.241 121.373 268.428 121.264 268.902Z" fill="#87735D"/>
<path d="M89.0344 265.442C91.591 265.928 90.8889 268.238 90.8347 270.048C90.666 275.679 91.0093 281.203 93.0511 286.961C89.2042 283.393 88.7761 278.452 89.0809 273.259C89.2242 270.817 89.0899 268.36 89.0344 265.442Z" fill="#87735D"/>
<path d="M80.7454 220.319C80.1523 228.501 82.4261 236.746 83.0757 245.56C82.9048 246.114 82.7389 246.232 82.3299 246.165C80.7264 237.586 79.0533 229.211 80.7454 220.319Z" fill="#A37F6A"/>
<path d="M82.1207 246.363C82.0868 245.98 82.5782 245.994 82.8245 245.995C84.833 251.891 87.7979 257.376 89.03 263.881C85.0972 259.096 83.8467 252.834 82.1207 246.363Z" fill="#AB8871"/>
<path d="M82.5114 206.502C82.5375 206.49 82.4854 206.513 82.5114 206.502Z" fill="#87735D"/>
<path d="M107.164 317.162C107.894 316.73 108.589 316.327 108.538 316.179C105.455 307.157 111.508 296.116 120.365 292.806C125.022 291.065 129.098 289.539 134.015 291.382C136.108 292.167 136.232 290.415 135.311 289.088C134.388 287.758 133.094 286.686 131.953 285.492C137.421 282.588 137.797 279.405 133.13 274.298C136.049 272.342 139.301 274.374 142.657 273.805C142.963 274.238 143.023 274.407 143.192 274.824C143.536 275.498 143.591 275.946 143.251 276.698C141.634 278.349 141.996 279.919 142.772 281.752C143.675 282.779 144.713 283.262 144.936 284.717C145.44 285.313 145.914 285.597 146.673 285.926C144.074 292.378 139.08 295.391 132.116 294.869C127.01 294.486 123.99 298.774 119.665 300.151C118.584 300.495 118.156 302.254 118.933 303.995C119.433 306.001 118.489 307.259 117.403 308.157C113.885 311.063 113.46 314.539 115.053 318.88C113.405 328.059 117.468 336.827 124.862 339.826C125.665 340.153 126.115 340.371 126.9 340.78C130.088 343.24 134.029 341.606 137.057 344.049C134.688 348.656 130.756 346.968 127.406 346.476C124.356 346.028 121.445 344.644 118.074 343.527C113.362 339.081 108.542 335.172 106.547 328.659C105.886 325.404 106.39 322.476 106.081 319.177C106.171 318.214 106.404 317.728 107.164 317.162Z" fill="#BEA480"/>
<path d="M143.07 273.792C139.835 275.596 136.775 275.929 133.356 274.005C132.979 274.007 133.001 273.998 133.002 274.008C132.802 273.766 132.578 273.536 132.155 273.163C131.981 272.996 132.006 272.994 132.006 273.006C131.586 272.57 131.001 272.508 130.224 272.184C129.993 272.012 129.999 272.001 129.994 272.007C128.746 269.427 130.998 269.115 132.707 268.14C133.37 267.444 134.029 267.537 134.803 267.164C135.036 266.979 135.019 266.989 135.01 266.994C136.554 265.601 137.642 263.724 139.747 262.391C140.768 260.709 142.552 261.351 143.742 260.117C145.453 260.222 146.829 262.323 148.381 261.163C150.176 259.82 147.687 257.808 148.706 255.127C151.036 258.168 151.688 261.339 152.539 264.289C153.267 266.812 153.51 269.499 153.75 272.133C153.931 274.128 153.276 275.784 150.503 275.99C149.107 275.389 149.036 274.141 148.058 273.139C147.803 272.937 147.611 272.893 147.517 272.92C147.026 272.824 146.665 272.637 146.112 272.171C144.737 272.035 143.861 272.561 143.07 273.792Z" fill="#A78B69"/>
<path d="M162.167 271.87C162.695 269.023 168.103 266.306 161.452 263.57C160.462 263.163 162.339 259.792 164.474 258.346C166.865 256.728 167.903 257.993 168.608 259.712C169.34 261.498 169.514 263.512 169.969 265.823C170.597 267.322 170.363 268.502 170.231 269.634C169.662 274.487 168.381 275.088 163.423 272.561C162.928 272.242 162.709 272.14 162.167 271.87Z" fill="#71553B"/>
<path d="M163.115 272.62C169.284 275.016 168.233 269.452 169.817 266.454C170.182 266.216 170.358 266.213 170.795 266.175C171.192 265.97 171.328 265.8 171.654 265.894C171.845 266.159 171.911 266.189 171.875 266.196C172.836 266.694 173.421 267.56 174.059 268.786C174.218 269.284 174.247 269.493 174.277 270.019C171.872 272.475 169.466 274.614 166.735 276.926C166.01 277.365 165.57 277.45 164.831 277.15C164.395 276.786 164.225 276.649 163.923 276.202C163.555 274.893 163.319 273.895 163.115 272.62Z" fill="#9A866E"/>
<path d="M137.994 248.661C136.444 247.554 135.118 245.963 134.936 243.368C137.061 244.149 137.776 246.085 137.994 248.661Z" fill="#A78B69"/>
<path d="M140.949 252.681C138.946 252.85 138.605 251.172 137.992 249.367C140.02 249.169 140.434 250.786 140.949 252.681Z" fill="#A78B69"/>
<path d="M145.205 284.799C144.021 284.477 143.255 283.785 143.049 282.312C144.612 282.115 146.484 281.97 145.205 284.799Z" fill="#7E6349"/>
<path d="M147.861 273.3C149.279 273.017 149.883 273.924 150.075 275.628C148.61 275.956 148.002 275.059 147.861 273.3Z" fill="#7E6349"/>
<path d="M143.024 276.99C143.115 276.559 143.193 276.138 143.286 275.395C143.997 275.229 144.879 275.181 145.339 275.598C145.85 276.062 145.337 276.621 144.432 276.903C143.962 277.09 143.775 277.228 143.301 277.169C143.013 276.971 143.01 277.001 143.024 276.99Z" fill="#7E6349"/>
<path d="M141.969 254.711C141.631 254.549 141.291 254.087 140.961 253.32C141.303 253.48 141.635 253.946 141.969 254.711Z" fill="#A78B69"/>
<path d="M149.14 284.391C149.005 283.941 147.882 283.721 148.711 282.945C148.837 283.233 148.963 283.521 149.167 284.054C149.244 284.3 149.143 284.337 149.14 284.391Z" fill="#7E6349"/>
<path d="M142.979 257.125C142.638 256.892 142.305 256.299 141.975 255.363C142.314 255.601 142.65 256.184 142.979 257.125Z" fill="#A78B69"/>
<path d="M94.4874 205.472C94.5217 205.456 94.453 205.487 94.4874 205.472Z" fill="#7A5B3F"/>
<path d="M96.9667 207.023C96.8404 206.9 96.7455 206.748 96.6507 206.595C96.7396 206.63 96.8286 206.664 96.9863 206.815C97.0551 206.931 96.9982 206.995 96.9667 207.023Z" fill="#7A5B3F"/>
<path d="M134.848 242.788C134.689 242.832 134.383 242.64 133.907 242.227C134.058 242.188 134.38 242.369 134.848 242.788Z" fill="#A78B69"/>
<path d="M146.082 272.206C146.246 272.147 146.611 272.326 147.199 272.726C147.043 272.78 146.663 272.612 146.082 272.206Z" fill="#7E6349"/>
<path d="M158.349 271.976C158.357 271.812 158.671 271.913 158.829 271.958C158.987 272.003 158.679 272.345 158.679 272.345C158.679 272.345 158.34 272.14 158.349 271.976Z" fill="#71553B"/>
<path d="M143.095 277.169C143.202 276.923 143.39 276.875 143.864 276.89C143.909 277.287 143.732 277.769 143.095 277.169Z" fill="#BEA480"/>
<path d="M215.592 268.104C219.385 267.991 222.766 267.998 226.609 268.04C229.044 273.096 223.971 274.147 221.995 276.89C219.866 279.845 217.342 277.793 214.653 276.676C211.884 273.411 212.296 270.687 215.592 268.104Z" fill="#9F7F58"/>
<path d="M214.752 276.25C220.833 277.26 224.498 275.067 227.051 268.431C228.142 268.325 229.215 268.575 230.618 268.889C229.429 272.551 225.78 274.164 223.414 276.989C222.201 278.437 220.762 279.572 222.889 281.649C222.722 283.03 221.547 283.955 220.912 283.362C218.807 281.394 215.436 280.985 214.25 277.58C214.336 276.98 214.416 276.748 214.752 276.25Z" fill="#B69B76"/>
<path d="M214.845 275.66C214.996 276.179 214.986 276.374 214.958 276.864C213.906 278.694 216.022 280.996 213.31 282.216C210.858 281.843 209.669 280.563 209.087 278.279C209.386 276.647 209.121 275.261 209.88 273.717C210.659 271.707 211.467 270.061 211.748 267.87C212.302 266.345 212.951 265.327 214.567 264.873C215.122 264.927 215.306 264.943 215.768 264.982C216.03 265.751 216.016 266.495 216.003 267.612C214.946 270.324 213.03 272.51 214.845 275.66Z" fill="#B89F80"/>
<path d="M231.73 268.02C231.808 268.234 231.618 268.513 231.191 268.895C231.124 268.694 231.293 268.389 231.73 268.02Z" fill="#C9AD96"/>
<path d="M106.816 318.808C108.915 321.877 107.623 325.075 108.041 328.541C106.005 332.022 108.314 335.277 107.325 338.648C105.446 340.197 106.516 343.14 103.721 344.025C101.197 343.769 100.892 341.734 99.9625 340.246C99.0475 338.782 98.6834 336.789 96.2715 336.462C94.5725 341.762 99.6556 343.853 101.166 347.777C100.902 348.205 100.803 348.414 100.678 348.431C97.2465 348.898 92.7975 348.01 93.497 353.902C93.1735 353.938 92.85 353.974 92.2451 354.003C88.6923 348.34 88.6472 338.77 91.9188 334.175C92.1802 333.465 92.3147 333.056 92.501 332.316C93.283 331.082 93.5988 330.007 94.0735 328.615C97.6661 324.254 100.732 319.723 106.816 318.808Z" fill="#A4825C"/>
<path d="M107.214 318.663C102.524 321.301 99.1926 325.142 95.3342 328.875C93.822 329.881 94.0355 331.398 93.1617 332.714C92.7865 333.208 92.5981 333.439 92.1635 333.739C89.3275 332.641 88.3308 334.878 86.7162 336.143C85.1122 337.399 82.7822 339.045 81.0531 337.071C79.5967 335.408 81.9037 333.982 82.8992 332.578C85.4582 328.969 89.8587 327.106 91.971 322.724C92.792 321.981 93.5494 321.538 94.6194 321.003C95.5316 320.458 96.0675 319.93 96.8606 319.27C100.286 318.387 103.172 316.342 107.104 316.937C107.463 317.454 107.378 317.894 107.214 318.663Z" fill="#62472E"/>
<path d="M91.5628 356.02C89.5428 360.366 86.6123 356.663 83.957 356.219C86.3923 355.99 88.7557 356.014 91.5628 356.02Z" fill="#BEA480"/>
<path d="M210.944 273.657C210.479 275.178 210.037 276.368 209.335 277.746C207.053 275.124 205.177 274.458 203.352 278.164C202.934 279.011 202.056 279.657 201.313 280.309C200.72 280.83 199.965 281.64 199.363 281.575C198.167 281.446 198.113 280.182 198.073 279.21C197.958 276.387 197.923 273.656 195.768 271.33C193.239 268.6 191.211 268.516 189.255 271.864C187.822 270.776 188.287 269.149 188.006 267.382C186.824 264.687 183.786 263.679 183.738 260.403C187.132 260.937 190.273 261.696 191.922 265.155C192.445 266.251 194.038 266.903 195.416 266.518C196.711 266.156 196.804 264.857 196.999 263.672C197.164 262.667 196.408 261.026 198.153 260.874C199.825 260.728 200.749 261.801 201.295 263.45C202.209 266.211 203.391 268.883 204.535 271.781C207.13 269.275 207.13 269.275 209.202 260.163C211.778 264.909 213.704 258.596 216.486 259.876C216.257 261.294 215.667 262.773 215.007 264.582C214.381 265.754 213.824 266.596 213.137 267.717C211.254 269.362 210.963 271.288 210.944 273.657Z" fill="#80674D"/>
<path d="M183.606 260.125C184.056 262.99 188.352 263.112 188.011 266.652C183.986 263.542 180.852 263.958 178.752 269.068C177.911 271.116 176.077 269.376 174.577 270.201C174.278 270.336 174.019 270.01 173.89 269.847C173.125 268.452 173.453 267.446 174.78 266.425C177.5 263.799 180.38 261.968 183.606 260.125Z" fill="#9A866E"/>
<path d="M174.904 266.009C174.706 267.197 174.333 268.148 173.86 269.391C172.331 269.26 171.961 268.125 171.84 266.513C172.803 266.059 173.766 265.916 174.904 266.009Z" fill="#71553B"/>
<path d="M171.81 265.977C171.845 266.159 171.45 266.172 171.253 266.156C171.188 265.799 171.274 265.364 171.81 265.977Z" fill="#71553B"/>
<path d="M269.21 297.459C269.176 297.166 269.275 296.726 269.333 296.509C269.617 296.075 269.803 295.826 270.035 295.329C271.077 294.552 271.799 293.808 272.043 292.36C274.486 290.896 273.203 287.637 275.642 286.199C275.575 289.374 275.186 292.665 274.79 296.362C274.783 296.769 274.821 296.883 274.878 296.902C274.738 297.218 274.498 297.476 273.971 297.795C273.473 298.376 273.222 298.859 272.93 299.617C272.477 299.961 272.065 300.029 271.342 300.118C270.434 299.342 269.839 298.547 269.21 297.459Z" fill="#C1AB96"/>
<path d="M273.538 300.508C273.47 300.473 273.609 300.75 273.681 300.769C273.752 300.788 273.605 300.544 273.538 300.508Z" fill="#111111"/>
<path d="M183.317 435.858C178.961 435.295 174.317 438.211 171.041 433.302C178.552 434.862 185.288 433.924 190.722 427.709C193.522 424.507 194.77 420.648 196.012 416.371C195.03 408.484 198.538 403.441 206.694 400.977C211.018 399.997 214.865 398.815 218.393 396.037C218.801 395.657 218.967 395.508 219.402 395.161C220.429 394.52 221.221 394.117 221.866 393.022C222.233 392.583 222.391 392.415 222.819 392.026C226.424 389.368 228.054 385.978 228.519 381.969C228.668 380.685 228.596 379.366 229.841 378.131C233.794 377.968 237.439 377.986 241.542 378.003C248.884 377.774 255.114 380.91 260.533 381.442C255.366 380.354 248.985 378.757 242.269 377.223C241.834 376.979 241.61 377.006 241.521 376.909C241.333 376.703 241.215 376.433 241.068 376.189C247.005 373.726 252.517 370.66 257.599 366.592C259.802 364.829 263.392 366.142 266.35 366.01C268.136 365.931 269.929 365.996 271.732 365.269C269.186 365.06 265.601 365.816 264.319 364.434C261.915 361.843 267.863 361.285 267.061 358.23C266.763 357.096 267.461 355.986 268.871 355.121C272.176 358.02 275.142 361.094 278.133 364.533C277.767 365.542 277.065 365.423 276.477 365.583C276.938 365.686 277.416 365.432 278.057 365.915C277.168 372.204 276.092 378.226 275.057 384.635C272.592 385.13 271.772 387.149 271.216 388.959C269.353 395.017 264.759 398.897 260.28 402.757C256.912 405.66 254.248 409.533 249.446 411.137C247.74 411.383 246.935 412.25 246.182 413.669C242.917 413.993 240.739 415.972 238.094 417.708C228.233 420.06 218.481 420.675 208.34 420.659C204.339 422.933 202.33 426.764 198.919 429.18C194.246 432.49 189.271 434.785 183.317 435.858Z" fill="#D9D2C2"/>
<path d="M246.28 413.811C246.25 412.29 245.77 410.032 248.916 410.974C248.982 412.777 247.718 413.183 246.28 413.811Z" fill="#CFCAB8"/>
<path d="M278.467 366.125C277.536 365.987 276.829 365.793 276.122 365.598C276.599 365.384 277.077 365.169 277.855 364.926C278.551 365.089 278.946 365.28 279.34 365.472C279.124 365.671 278.908 365.869 278.467 366.125Z" fill="#E9E4D2"/>
<path d="M273.98 297.806C273.952 297.613 274.18 297.334 274.671 296.988C274.702 297.187 274.469 297.453 273.98 297.806Z" fill="#817262"/>
<path d="M131.405 388.048C130.963 387.583 130.743 387.343 130.218 387.09C129.621 384.972 129.26 382.931 128.846 380.506C133.378 379.233 134.857 383.959 137.313 385.939C139.623 387.802 143.952 387.09 144.798 391.289C145.049 392.534 146.629 391.244 147.131 390.095C147.545 389.15 148.133 388.149 149.318 388.73C150.117 389.123 150.041 390.163 149.835 390.993C149.503 392.332 149.009 393.848 151.141 393.903C159.275 394.115 167.618 395.044 173.771 387.785C174.865 386.494 176.045 385.34 176.103 383.132C176.55 382.539 176.972 382.475 177.677 382.789C179.29 387.787 177.694 391.085 173.334 393.609C169.328 395.928 165.214 397.782 160.388 398.989C159.214 399.281 158.411 399.257 157.299 399.071C156.569 399.071 156.144 399.081 155.4 399.119C149.385 397.441 143.467 396.439 137.718 393.701C136.722 392.62 135.881 391.964 134.311 392.003C134.302 390.113 132.781 389.291 131.405 388.048Z" fill="#D9D2C2"/>
<path d="M223.201 393.004C222.972 393.347 222.994 393.678 222.995 393.844C222.231 394.686 221.167 394.872 220.215 395.802C220.006 396.021 219.999 395.999 220.009 396.004C216.353 398.342 212.314 399.847 207.882 401.412C203.397 402.257 199.285 403.199 194.8 401.462C194.189 401.349 193.949 401.297 193.373 401.108C192.205 400.572 191.593 399.828 190.398 399.406C189.875 399.225 189.671 399.138 189.189 398.868C188.758 398.526 188.605 398.366 188.294 397.578C187.15 396.141 186.252 395.175 185.159 394.55C181.028 392.188 179.089 388.878 180.356 383.667C180.495 383.055 180.553 382.85 180.916 382.548C181.641 382.331 182.056 382.344 182.706 382.703C183.536 389.572 190.842 395.539 199.681 395.901C204.485 396.098 210.12 397.755 212.668 390.878C213.273 389.246 214.779 390.724 214.985 392.638C216.704 392.11 220.359 393.314 218.798 388.906C218.427 387.858 221.676 388.353 222.948 386.147C224.6 383.281 223.996 379.639 226.932 377.189C230.838 380.556 228.332 384.163 227.249 387.611C226.622 389.611 224.939 391.148 223.201 393.004Z" fill="#D5CCBD"/>
<path d="M212.992 282.502C214.434 281.024 213.671 279.064 214.7 277.393C216.87 279.698 219.57 281.09 222.745 282.057C224.562 284.055 226.775 284.802 229.622 284.974C229.86 285.289 229.681 285.551 229.236 285.9C228.014 287.096 228.368 287.922 229.723 288.83C229.968 289.04 229.99 289.008 229.976 289.027C231.654 290.151 232.905 291.602 233.669 293.843C234.291 294.136 234.736 294.155 235.514 294.166C236.272 294.467 236.472 294.884 236.244 295.719C235.979 297.558 236.886 298.048 238.579 298.082C240.47 298.722 240.802 300.3 241.78 301.771C242.36 302.76 242.769 303.483 243.205 304.528C245.064 306.708 245.426 309.292 246.748 311.771C248.073 312.28 249.174 312.532 250.588 312.919C251.464 314.064 250.721 314.728 250.074 315.057C247.274 316.483 246.815 317.696 249.079 320.49C250.945 322.793 249.802 325.549 246.444 326.966C245.311 326.953 244.647 326.672 244.036 325.715C244.145 311.135 237.637 300.431 226.656 291.985C225.253 290.906 224.411 289.126 223.121 287.863C220.328 285.129 217.035 283.274 212.992 282.502Z" fill="#D4C1A4"/>
<path d="M245.445 326.636C248.518 324.956 250.102 322.46 247.443 320.266C243.237 316.797 245.121 315.709 248.776 314.525C249.389 314.326 249.923 313.885 250.698 313.305C251.699 313.206 252.869 313.355 252.284 314.453C250.007 318.73 250.811 323.011 252.051 327.749C255.633 330.69 259.053 333.31 262.929 335.878C264.21 337.083 264.362 338.542 265.304 339.956C265.529 340.477 265.594 340.696 265.67 341.258C265.589 342.057 265.381 342.453 264.718 342.817C262.507 342.154 260.602 341.863 258.58 341.879C249.235 341.953 247.419 340.17 246.949 330.335C245.716 329.301 244.953 328.438 245.445 326.636Z" fill="#BEA27D"/>
<path d="M113.461 319.075C109.348 311.843 115.061 308.766 118.872 304.615C127.299 299.878 135.593 298.706 144.09 303.962C149.78 307.481 152.761 312.455 152.803 319.649C150.153 319.397 150.018 316.989 149.039 315.231C147.855 313.106 146.847 310.908 144.451 309.318C141.936 308.023 139.753 306.794 136.947 306.154C128.1 304.523 122.105 307.549 118.306 315.28C117.505 316.91 116.998 318.727 115.077 320.016C114.185 320.16 113.774 319.923 113.461 319.075Z" fill="#4F3D24"/>
<path d="M245.368 326.263C245.956 327.319 246.293 328.33 246.781 329.625C235.383 325.413 224.29 325.978 213.844 333.013C211.336 334.702 208.997 336.64 206.227 338.73C206.17 336.121 208.006 335.096 208.746 333.152C212.307 326.129 218.187 323.134 225.645 322.012C232.078 321.183 237.767 322.466 243.581 325.22C244.335 325.638 244.726 325.928 245.368 326.263Z" fill="#4D4030"/>
<path d="M172.166 373.829C168.518 372.007 165.112 369.935 163.037 366.347C161.94 364.45 162.001 363.114 164.405 362.071C173.409 358.168 182.54 358.147 191.673 361.174C193.836 361.891 196.565 362.948 196.824 366.013C197.056 368.759 195.505 370.339 192.662 371.153C190.762 371.151 189.397 370.637 187.921 369.47C186.515 366.991 189.371 366.237 189.46 364.059C183.586 361.816 177.552 362.39 171.537 363.31C169.57 363.611 169.252 364.965 170.497 366.913C170.771 369.471 173.159 371.1 172.166 373.829Z" fill="#B3907F"/>
<path d="M225.879 321.77C219.961 324.705 213.968 327.444 209.189 332.7C206.719 330.458 207.253 328.337 209.018 325.848C211.851 321.854 215.979 319.944 220.153 317.982C222.165 317.037 224.425 316.414 226.336 317.487C228.83 318.887 223.47 319.735 225.879 321.77Z" fill="#C5BBAA"/>
<path d="M178.163 382.831C177.537 382.96 177.137 382.926 176.442 382.823C174.495 380.535 172.666 378.415 172.14 375.223C172.828 374.21 173.007 373.274 173.795 372.309C177.84 369.153 181.803 367.738 186.489 371.012C187.31 372.265 187.117 373.302 186.987 374.732C186.011 377.951 185.499 381.141 181.247 381.257C178.92 379.831 179.071 381.895 178.163 382.831Z" fill="#B98A7A"/>
<path d="M107.397 339.062C106.01 335.64 103.89 332.339 107.68 329.078C109.235 332.523 111.991 334.915 114.316 337.657C115.628 339.205 118.016 340.123 117.725 343.066C116.401 343.386 115.127 343.392 113.472 343.314C112.061 340.859 109.38 340.701 107.397 339.062Z" fill="#72563B"/>
<path d="M153.09 319.925C155.199 322.103 154.168 324.82 154.332 327.333C154.407 328.48 154.271 329.642 154.369 330.785C154.646 334.053 156.09 337.751 155.014 340.461C153.884 343.305 149.327 340.029 146.456 342.326C145.903 342.182 145.735 341.994 145.486 341.437C145.46 339.964 146.111 339.237 147.265 338.449C148.997 337.529 152.201 338.466 150.609 334.605C150.235 332.961 150.286 331.675 150.494 329.978C150.779 326.492 150.725 323.346 152.699 320.273C153.02 319.99 153.066 319.945 153.09 319.925Z" fill="#4F3D24"/>
<path d="M223.325 393.24C223.906 389.668 227.316 387.154 227.587 383.072C227.707 381.255 228.083 379.482 227.468 377.354C226.571 375.644 225.863 374.246 224.883 372.309C228.288 372.833 229.012 375.145 230.024 377.621C230.03 383.88 229.353 389.572 223.325 393.24Z" fill="#ACA493"/>
<path d="M241.998 377.257C250.643 378.03 259.113 379.808 267.279 382.969C258.838 382.741 250.929 379.714 242.359 378.161C242.001 378.002 241.999 377.505 241.998 377.257Z" fill="#E5DFCF"/>
<path d="M145.591 340.639C145.951 341.138 145.974 341.384 146.033 342C143.516 343.625 140.764 344.053 137.574 344.369C133.618 343.724 129.816 344.48 126.428 342.041C126.834 341.171 127.286 340.751 127.746 340.831C133.615 341.847 139.435 341.226 145.591 340.639Z" fill="#725C33"/>
<path d="M174.646 372.395C173.903 373.439 173.352 374.066 172.489 374.779C172.177 374.866 172.038 374.472 171.982 374.27C172.809 371.562 168.452 371.096 169.837 368.132C173.939 366.419 174.781 368.735 174.646 372.395Z" fill="#6C493A"/>
<path d="M186.288 375.209C185.944 373.894 185.882 372.797 185.782 371.29C185.619 369.743 186.234 369.11 187.568 368.751C189.368 369.082 190.874 369.244 192.087 370.846C192.302 371.151 192.244 371.203 192.21 371.223C190.9 371.961 189.611 372.657 188.195 373.739C187.954 373.941 187.838 374.368 187.761 374.576C187.455 375.245 187.076 375.447 186.288 375.209Z" fill="#724D3F"/>
<path d="M185.958 375.344C186.378 374.943 186.75 374.895 187.404 374.815C187.794 378.199 185.849 380.451 183.157 382.659C182.512 382.972 182.081 383.026 181.325 383.12C180.861 382.963 180.721 382.767 180.783 382.272C180.986 381.973 180.917 381.512 180.904 381.28C184.023 380.632 185.056 378.247 185.958 375.344Z" fill="#B3907F"/>
<path d="M107.111 352.831C106.852 351.255 109.001 350.704 108.376 348.581C107.383 345.206 110.211 347.316 111.623 346.891C110.035 348.568 111.71 352.938 107.111 352.831Z" fill="#D9D2C2"/>
<path d="M264.289 343.182C264.584 342.384 264.79 341.923 265.034 341.201C269.402 341.084 268.428 343.47 266.78 346.187C265.401 346.649 264.511 346.598 263.792 345.298C263.91 344.395 264.055 343.956 264.289 343.182Z" fill="#A98861"/>
<path d="M188.29 373.911C188.138 371.772 189.826 371.493 191.819 371.196C191.603 372.943 190.107 373.401 188.29 373.911Z" fill="#B3907F"/>
<path d="M164.449 277.198C165.03 276.99 165.494 277.057 166.185 277.111C166.5 278.232 166.008 279.098 164.867 279.042C164.093 279.003 164.27 278.094 164.449 277.198Z" fill="#87735D"/>
<path d="M263.54 345.037C264.402 345.183 265.039 345.532 266.117 346.234C266.138 346.975 265.717 347.363 264.91 347.953C263.202 347.564 262.932 346.538 263.54 345.037Z" fill="#BEA27D"/>
<path d="M129.136 378.902C128.899 378.475 128.952 378.034 129.107 377.274C129.814 377.126 130.533 377.294 130.411 378.082C130.363 378.394 129.771 378.622 129.136 378.902Z" fill="#D9D2C2"/>
<path d="M205.678 339.265C205.777 339.385 205.465 339.494 205.465 339.494C205.465 339.494 205.578 339.145 205.678 339.265Z" fill="#4D4030"/>
<path d="M182.969 436.167C184.272 433.793 186.618 433.819 188.609 433.203C194.263 431.454 199.092 428.424 202.828 423.868C204.088 422.331 205.612 421.654 207.665 420.967C201.823 429.086 194.444 435.501 183.423 437.063C183.007 436.859 182.997 436.662 182.969 436.167Z" fill="#A19889"/>
<path d="M162.55 416.304C162.255 413.716 162.186 411.358 162.138 408.562C163.26 405.612 163.788 402.862 167.004 401.732C174.262 399.182 176.942 401.175 178.005 410.064C178.066 407.647 180.209 405.68 180.395 402.898C180.544 400.662 182.788 399.479 184.922 400.326C189.851 402.282 194.968 404.256 195.892 410.99C195.963 412.434 196.038 413.507 195.018 414.65C191.92 417.347 190.992 420.987 188.945 423.963C180.591 436.111 169.82 430.76 164.419 420.698C163.718 419.392 163.316 417.925 162.55 416.304Z" fill="#DD9384"/>
<path d="M194.869 415.073C194.754 413.832 194.842 412.806 194.935 411.392C195.316 408.929 194.404 406.807 195.337 404.488C195.462 403.749 196.537 404.383 195.875 403.584C193.994 403.123 192.968 402.14 192.9 400.14C197.72 400.571 202.368 401.505 207.586 400.742C208.156 400.905 208.269 401.131 208.198 401.69C200.985 403.691 196.974 408.028 196.137 415.644C195.689 415.758 195.38 415.523 194.869 415.073Z" fill="#765345"/>
<path d="M193.037 399.87C194.104 400.825 195.151 401.806 196.509 402.801C196.96 403.039 197.099 403.263 197.037 403.829C194.982 405.969 196.62 408.527 195.201 410.741C193.85 405.452 188.823 404.025 184.854 401.616C182.435 400.147 181.463 402.342 181.194 404.153C180.59 408.224 177.842 411.775 178.605 416.234C175.966 413.723 177.48 410.371 176.281 407.638C175.486 405.826 176.742 402.327 173.871 402.424C170.806 402.528 167.069 401.964 164.66 405.002C163.955 405.891 163.411 406.907 162.476 407.994C161.114 402.907 162.614 399.389 168.323 398.299C169.901 397.998 171.371 396.975 172.811 396.147C175.849 394.401 177.068 395.372 177.013 398.71C176.977 400.851 177.022 403.019 178.439 404.938C180.57 395.265 180.57 395.265 187.751 396.994C188.138 396.95 188.066 396.998 188.04 396.964C188.187 397.218 188.407 397.465 188.87 397.822C189.067 397.975 189.004 397.989 189.012 397.957C189.937 399.033 191.478 398.769 192.81 399.735C193.068 399.94 193.017 399.897 193.037 399.87Z" fill="#AD7062"/>
<path d="M157.16 399.361C157.742 398.233 158.613 398.136 159.795 398.819C160.623 400.891 162.074 402.782 159.596 404.643C158.628 403.004 157.977 401.333 157.16 399.361Z" fill="#998C7E"/>
<path d="M180.798 382.139C180.989 382.17 180.992 382.367 180.998 382.861C181.001 383.159 180.725 383.249 180.58 383.254C180.494 382.942 180.552 382.624 180.798 382.139Z" fill="#B98A7A"/>
<path d="M101.339 348.084C97.0663 345.21 93.4363 342.154 94.0308 336.523C94.1552 335.345 94.2136 334.09 95.4254 333.557C96.7411 332.979 97.5027 334.129 98.3819 334.841C101.127 337.064 101.492 340.576 103.233 343.779C100.926 344.617 109.084 349.763 101.339 348.084Z" fill="#76573A"/>
<path d="M266.9 346.677C266.559 346.586 266.429 346.278 266.421 346.11C267.272 344.178 267.682 342.476 265.409 341.017C265.071 340.94 265.055 340.975 265.059 340.965C264.077 340.022 264.038 338.631 263.176 337.302C258.844 334.991 254.279 333.512 252.136 328.511C261.451 327.558 271.81 334.982 274.178 343.829C274.526 345.129 274.276 345.699 273.06 345.9C271.125 346.219 269.181 346.482 266.9 346.677Z" fill="#7A5B3C"/>
<path d="M247.01 311.707C243.926 310.94 244.341 307.787 243.185 305.225C246.868 305.65 246.676 308.682 247.01 311.707Z" fill="#BEA27D"/>
<path d="M233.892 293.738C231.699 293.413 230.981 291.478 230.009 289.383C234.102 287.889 233.848 290.784 233.892 293.738Z" fill="#BEA27D"/>
<path d="M242.017 301.688C239.639 301.978 239.109 300.501 239.054 298.32C241.339 297.856 243.464 297.896 242.017 301.688Z" fill="#BEA27D"/>
<path d="M229.862 288.739C228.091 288.885 226.005 288.845 228.745 286.167C229.276 286.836 229.516 287.637 229.862 288.739Z" fill="#BEA27D"/>
<path d="M236.323 295.974C236.002 295.613 235.964 295.196 235.886 294.469C236.508 294.113 237.246 294.1 237.384 294.893C237.434 295.181 236.882 295.573 236.323 295.974Z" fill="#BEA27D"/>
<path d="M234.77 282.569C234.821 282.409 234.948 282.358 235.075 282.307C234.998 282.431 234.921 282.554 234.77 282.569Z" fill="#D4C1A4"/>
<path d="M253.996 282.992C253.751 283.191 253.527 283.42 253.267 283.599C253.21 283.638 253.029 283.498 252.905 283.441C253.132 283.298 253.36 283.154 253.806 283.018C254.025 283.025 254.004 283.004 253.996 282.992Z" fill="#C9AD96"/>
<path d="M232.44 283.535C232.484 283.597 232.395 283.473 232.44 283.535Z" fill="#D4C1A4"/>
<path d="M230.011 285.017C230.089 284.983 230.154 284.934 230.095 284.933C229.971 284.981 230 285.003 230.011 285.017Z" fill="#D4C1A4"/>
<path d="M258.529 287.483C258.542 287.506 258.516 287.459 258.529 287.483Z" fill="#C9AD96"/>
<path d="M121.253 269.184C120.891 268.998 120.852 268.809 120.869 268.337C123.464 268.234 125.981 268.475 127.855 271.059C126.909 271.292 125.845 271.151 124.406 271.014C123.508 270.01 122.751 269.316 121.253 269.184Z" fill="#CBB39C"/>
<path d="M96.7718 319.126C96.8861 319.957 96.4924 320.644 95.2457 320.887C95.1159 320.044 95.4781 319.33 96.7718 319.126Z" fill="#836547"/>
<path d="M130.156 272.264C130.543 272.192 131.093 272.371 131.825 272.785C131.444 272.852 130.881 272.684 130.156 272.264Z" fill="#BEA480"/>
<path d="M111.498 279.49C111.516 279.483 111.48 279.497 111.498 279.49Z" fill="#87735D"/>
<path d="M123.991 270.984C123.98 270.97 123.793 271.36 123.793 271.36C123.793 271.36 123.818 271.106 123.924 271.062C124.029 271.019 124.001 270.998 123.991 270.984Z" fill="#CBB39C"/>
<path d="M132.083 273.226C132.302 273.113 132.567 273.306 132.89 273.797C132.73 273.831 132.458 273.643 132.083 273.226Z" fill="#BEA480"/>
<path d="M139.608 262.104C140.046 265.079 137.724 265.857 135.348 266.95C135.341 265.547 135.681 264.096 136.018 262.261C137.079 261.936 138.145 261.993 139.608 262.104Z" fill="#BEA480"/>
<path d="M129.515 241.502C129.532 241.502 129.498 241.502 129.515 241.502Z" fill="#87735D"/>
<path d="M130.489 243.497C130.506 243.498 130.472 243.496 130.489 243.497Z" fill="#87735D"/>
<path d="M130.054 264.292C131.462 264.161 132.571 264.803 133.029 266.623C131.459 266.93 130.478 266.155 130.054 264.292Z" fill="#D1B898"/>
<path d="M134.704 266.951C134.559 267.315 134.082 267.651 133.297 268C132.992 267.838 132.996 267.664 133.02 267.228C133.484 266.953 133.928 266.938 134.704 266.951Z" fill="#D1B898"/>
<path d="M128.179 263.205C128.566 263.138 129.129 263.314 129.866 263.737C129.479 263.805 128.917 263.627 128.179 263.205Z" fill="#D1B898"/>
<path d="M113.258 319.066C113.758 319.011 114.091 319.325 115.009 320.029C116.874 322.26 116.954 324.459 117.446 326.891C117.51 327.932 117.655 328.598 118.113 329.534C119.225 334.128 122.714 336.66 125.039 340.514C118.126 339.262 113.414 332.485 112.909 323.842C112.823 322.382 113.022 320.905 113.258 319.066Z" fill="#725C33"/>
<path d="M125.969 342.019C125.57 342.019 125.293 341.849 124.964 341.374C124.862 341.152 124.946 341.059 124.988 341.012C125.427 340.792 125.774 340.863 126.124 341.471C126.176 341.764 126.039 341.935 125.969 342.019Z" fill="#725C33"/>
<path d="M137.648 270.634C138.645 270.479 138.863 270.997 138.775 271.66C138.749 271.852 138.373 272.177 138.228 272.143C137.544 271.979 137.289 271.487 137.648 270.634Z" fill="#BEA480"/>
<path d="M135.462 269.518C135.491 269.569 135.433 269.467 135.462 269.518Z" fill="#BEA480"/>
<path d="M211.186 273.753C209.986 271.696 208.531 269.289 212.627 268.015C213.057 269.996 212.26 271.759 211.186 273.753Z" fill="#997A59"/>
<path d="M93.2368 332.797C93.1283 331.583 92.6258 329.955 94.7317 329.152C95.0289 330.482 94.9092 331.837 93.2368 332.797Z" fill="#836547"/>
<path d="M208.393 402.053C208.017 401.799 208.02 401.575 208.033 401.014C211.784 399.074 215.525 397.47 219.642 395.938C217.376 400.082 212.72 400.427 208.393 402.053Z" fill="#9B9082"/>
<path d="M220.327 396.022C220.001 394.486 220.984 394.051 222.641 393.992C222.521 395.041 221.725 395.695 220.327 396.022Z" fill="#9B9082"/>
<path d="M193.113 399.564C191.576 400.13 190.25 399.861 189.157 398.249C190.662 397.488 192.007 398.022 193.113 399.564Z" fill="#765345"/>
<path d="M189.076 397.673C188.778 397.789 188.489 397.605 188.107 397.174C188.371 397.077 188.728 397.224 189.076 397.673Z" fill="#765345"/>
<path d="M214.997 392.996C214.994 392.992 214.765 393.384 214.765 393.384C214.765 393.384 214.786 393.096 214.897 393.051C215.008 393.006 215 393 214.997 392.996Z" fill="#E9E4D2"/>
<path d="M262.964 337.419C264.514 337.568 264.995 338.777 265.059 340.609C263.537 340.433 263.035 339.243 262.964 337.419Z" fill="#A98861"/>
<path d="M115.139 320.021C118.695 307.483 124.627 303.15 136.773 304.874C136.432 306.564 135.609 307.338 134.244 308.008C131.403 308.715 128.773 309.057 126.679 311.419C125.563 312.51 123.931 312.709 123.96 314.412C125.287 315.512 126.458 314.414 128.027 314.125C129.131 313.964 129.851 314.084 130.833 314.656C132.437 318.269 129.918 319.621 127.805 321.169C126.153 322.38 123.996 322.207 121.914 323.331C121.125 323.68 120.65 323.781 119.806 323.759C117.873 323.166 116.871 321.934 115.709 320.398C115.529 320.116 115.27 320.049 115.139 320.021Z" fill="#8C824B"/>
<path d="M152.734 319.789C152.886 323.129 152.966 326.293 151.827 329.738C151.003 330.764 150.187 330.811 148.959 330.337C147.451 328.711 147.262 327.065 147.42 324.937C147.49 324.004 147.505 323.474 147.504 322.558C147.766 317.955 145.392 314.534 144.04 310.407C144.041 309.489 144.186 308.992 144.723 308.252C149.266 310.707 150.473 315.394 152.734 319.789Z" fill="#8A814D"/>
<path d="M144.764 307.727C145.004 308.427 145.003 308.877 145.001 309.663C142.162 311.876 140.004 309.105 137.146 308.649C136.29 307.712 136.122 306.94 136.459 305.721C136.636 305.351 136.895 305.097 137.024 304.969C139.902 304.902 142.024 306.715 144.764 307.727Z" fill="#8C824B"/>
<path d="M188.05 368.453C187.318 369.315 186.71 369.851 185.924 370.634C182.166 371.35 178.336 370.391 174.772 372.783C174.076 370.505 173.745 368.162 170.327 367.844C169.069 366.447 166.268 366.734 166.538 364.68C166.845 362.347 169.261 361.87 171.145 361.493C176.4 360.44 181.743 360.772 187.018 361.297C189.245 361.519 192.083 362.187 192.63 364.775C193.367 368.264 189.025 366.095 188.05 368.453Z" fill="#E4B29D"/>
<path d="M148.473 329.744C149.54 329.837 150.267 329.947 151.357 330.103C151.664 331.366 151.606 332.584 151.476 334.161C151.612 336.67 150.408 337.841 148.346 338.819C147.513 339.529 146.92 340.005 146.129 340.686C139.741 343.826 133.399 343.445 126.586 341.77C126.049 341.443 125.826 341.216 125.268 341.025C121.642 338.124 118.2 335.324 117.054 330.348C116.616 329.596 116.475 329.128 116.669 328.238C117.195 327.577 117.644 327.391 118.505 327.405C120.785 328.45 121.323 330.508 122.436 332.116C124.873 335.634 127.97 338.243 132.506 339.422C133.736 339.519 134.612 339.449 135.744 338.908C141.928 338.246 144.228 332.932 148.473 329.744Z" fill="#C0B465"/>
<path d="M148.472 339.053C149.025 337.643 149.945 336.233 151.134 334.672C152.371 335.999 154.279 337.566 153.323 339.245C152.271 341.091 150.403 338.718 148.472 339.053Z" fill="#725C33"/>
<path d="M197.053 404.419C196.846 403.944 196.857 403.719 196.844 403.154C197.769 401.988 199.059 401.61 199.46 402.956C199.885 404.386 198.95 405.294 197.053 404.419Z" fill="#A38B7C"/>
<path d="M119.032 327.754C118.284 328.041 117.943 328.043 117.349 328.029C116.915 328.213 116.736 328.412 116.323 328.285C115.826 325.601 115.564 323.243 115.415 320.501C117.181 319.974 118.481 320.383 118.895 322.566C120.101 324.307 120.449 325.813 119.032 327.754Z" fill="#B2A759"/>
<path d="M116.086 328.254C116.255 327.974 116.422 327.991 116.841 328.01C117.072 328.456 117.049 328.898 116.997 329.671C116.672 329.518 116.378 329.034 116.086 328.254Z" fill="#8C824B"/>
<path d="M136.396 305.358C136.63 306.033 136.624 306.715 136.786 307.697C137.293 308.313 137.609 308.651 138.06 309.315C139.01 313.053 139.641 316.574 143.358 318.723C145.332 319.615 147.155 320.088 148.738 321.698C149.018 322.396 149.039 322.866 149.025 323.687C148.153 324.841 147.307 325.63 145.848 326.114C143.668 326.357 142.1 326.999 140.942 328.993C138.319 331.721 138.142 335.258 136.2 338.32C135.211 338.909 134.473 338.971 133.361 338.664C132.621 338.2 132.142 337.86 132.061 337.394C130.939 330.863 127.167 326.349 121.389 322.928C124.25 319.822 129.247 320.327 131.327 315.85C131.302 315.34 131.208 315.165 131.158 314.693C131.474 313.63 131.741 312.863 132.001 311.758C132.442 309.92 132.643 308.315 134.361 307.181C135.482 306.774 134.97 305.347 136.396 305.358Z" fill="#F1EDCD"/>
<path d="M120.95 322.691C129.067 324.186 132.574 329.313 133.366 337.185C133.814 338.407 133.907 339.284 133.156 340.472C125.345 340.07 121.518 335.095 118.768 328.375C118.681 326.608 118.739 325.178 118.864 323.32C119.476 322.869 120.02 322.846 120.95 322.691Z" fill="#534C25"/>
<path d="M134.237 307.035C134.329 308.888 133.969 310.684 133.368 312.789C132.448 313.519 131.957 314.121 131.547 315.072C131.57 315.364 131.524 315.488 131.46 315.501C130.592 315.344 129.788 315.173 128.574 314.972C126.691 314.388 126.229 313.122 125.932 311.409C126.963 306.648 130.465 306.988 134.237 307.035Z" fill="#5A5128"/>
<path d="M125.575 311.101C127.059 311.871 127.952 312.821 128.127 314.609C126.85 316.998 125.078 317.74 122.789 316.68C121.679 316.166 120.947 315.219 121.262 313.952C121.756 311.964 123.15 311.038 125.575 311.101Z" fill="#DFD8B7"/>
<path d="M135.366 338.045C136.14 334.209 137.001 330.956 139.624 328.129C141.4 327.016 143.218 326.7 144.738 325.185C146.065 324.609 147.179 324.283 148.642 323.998C148.966 325.669 148.942 327.298 148.866 329.327C146.227 334.959 142.906 339.353 136.245 340.432C135.459 339.893 135.264 339.25 135.366 338.045Z" fill="#504B1F"/>
<path d="M137.505 310.17C137.22 309.455 137.094 309.046 136.962 308.317C139.661 307.572 142.019 308.507 144.635 309.933C146.856 313.515 149.946 316.583 149.011 321.515C147.166 321.451 145.334 320.975 143.242 320.264C140.574 317.198 138.789 314.021 137.505 310.17Z" fill="#4D451F"/>
<path d="M135.225 337.577C135.588 338.188 135.706 338.833 135.836 339.978C135.055 340.622 134.263 340.768 133.161 340.857C132.969 339.967 133.087 339.132 133.377 337.911C134.027 337.554 134.503 337.583 135.225 337.577Z" fill="#8D8451"/>
<path d="M137.249 310.24C140.083 312.492 141.466 315.933 142.987 319.658C138.8 318.277 137.648 314.65 137.249 310.24Z" fill="#847C54"/>
<path d="M144.601 324.865C144.778 327.702 142.755 327.897 140.291 327.972C140.652 325.915 142.36 325.23 144.601 324.865Z" fill="#8A814D"/>
<path d="M131.827 315.229C131.14 314.347 131.311 313.565 132.781 313.126C132.781 313.763 132.433 314.428 131.827 315.229Z" fill="#8C824B"/>
</svg>
